<?xml version="1.0" encoding="UTF-8"?>
<svg version="1.1" xmlns="http://www.w3.org/2000/svg" width="1254" height="1254" viewBox="0 0 1254 1254">
<defs><clipPath id="favicon-rounded-clip"><rect width="1254" height="1254" rx="250" ry="250"/></clipPath></defs>
<g clip-path="url(#favicon-rounded-clip)">
<path d="M0 0 C413.82 0 827.64 0 1254 0 C1254 413.82 1254 827.64 1254 1254 C840.18 1254 426.36 1254 0 1254 C0 840.18 0 426.36 0 0 Z " fill="#FDFDFD" transform="translate(0,0)"/>
<path d="M0 0 C3.86295475 0.01066981 7.72543863 0.00006825 11.58837891 -0.01269531 C34.83930713 -0.02778136 57.8537416 1.28843181 80.82666016 4.94824219 C81.64968628 5.07668518 82.4727124 5.20512817 83.32067871 5.33746338 C96.86444924 7.46868527 110.01986998 10.35213117 123.15429688 14.32666016 C126.46404812 15.32078076 129.78566704 16.26443503 133.11181641 17.20214844 C192.68959064 34.15581819 247.90098111 64.35317705 293.35009766 106.56542969 C296.02348542 109.03813419 298.72952849 111.467006 301.45166016 113.88574219 C308.1964373 119.94955626 314.56325964 126.29236297 320.46337891 133.18261719 C322.45569651 135.48177764 324.51572641 137.71045073 326.57666016 139.94824219 C331.31552509 145.20654425 335.60358405 150.76751597 339.86035156 156.41552734 C341.35637819 158.38195678 342.87618512 160.32818627 344.40087891 162.27246094 C351.94387895 171.92934404 358.8099462 181.84702818 365.26416016 192.26074219 C365.63959961 192.85999512 366.01503906 193.45924805 366.40185547 194.07666016 C389.40863112 230.89781814 406.56979147 270.78371118 417.58691406 312.74609375 C418.43713447 315.90300443 419.41450639 319.01530918 420.38916016 322.13574219 C433.6236945 368.00024912 435.13573887 419.60338018 427.68457031 466.59082031 C427.09442476 470.33869008 426.53968 474.0916058 425.98242188 477.84448242 C425.41640981 481.65093062 424.84041395 485.45583236 424.26416016 489.26074219 C425.48490234 489.22980469 426.70564453 489.19886719 427.96337891 489.16699219 C438.63937157 489.18577555 447.79960821 496.0518418 455.26806641 503.17089844 C471.00205687 520.31285226 475.26019402 541.13541193 474.41210938 563.70458984 C473.1171793 586.07739158 464.24933736 606.57270394 449.26416016 623.26074219 C448.65056641 623.9684375 448.03697266 624.67613281 447.40478516 625.40527344 C443.50388823 629.63124511 439.17624207 632.87435595 434.38916016 636.01074219 C433.83655518 636.37570801 433.2839502 636.74067383 432.71459961 637.11669922 C429.28006058 639.27957206 425.80958488 640.90701981 422.02929688 642.390625 C421.13508026 642.74312317 420.24086365 643.09562134 419.31954956 643.45880127 C418.64127106 643.72344177 417.96299255 643.98808228 417.26416016 644.26074219 C417.22515091 644.9266185 417.18614166 645.59249481 417.14595032 646.27854919 C413.35742031 710.47772384 413.35742031 710.47772384 408.26416016 736.26074219 C407.92795654 737.98574951 407.92795654 737.98574951 407.58496094 739.74560547 C400.12602901 777.00868178 385.30490393 812.91345383 362.26416016 843.26074219 C361.59900391 844.13859375 360.93384766 845.01644531 360.24853516 845.92089844 C338.69934764 873.55816941 306.07853795 901.54444085 270.26416016 907.26074219 C265.19089981 907.81563004 261.52814775 908.06969424 257.13916016 905.26074219 C254.7871406 901.49751089 254.68521649 898.54548472 255.26416016 894.26074219 C256.28766373 891.04753494 257.69998922 888.05661604 259.13916016 885.01074219 C264.97507903 872.04073176 269.65897515 858.70845781 274.26416016 845.26074219 C274.5698291 844.37644531 274.87549805 843.49214844 275.19042969 842.58105469 C281.79343653 823.32131082 285.80653408 803.32572966 289.6159668 783.35595703 C290.3641072 779.47844305 291.09382998 775.7620686 292.36572266 772.01855469 C293.47510994 768.61321806 293.68706652 765.45606309 293.88916016 761.88574219 C293.96392578 760.64050781 294.03869141 759.39527344 294.11572266 758.11230469 C294.16470703 757.17128906 294.21369141 756.23027344 294.26416016 755.26074219 C293.85166016 755.68484375 293.43916016 756.10894531 293.01416016 756.54589844 C274.00503947 775.85203664 251.59711819 790.32989636 227.75708008 802.92480469 C225.30508019 804.23881344 222.88607924 805.60162024 220.46728516 806.97558594 C217.24412779 808.77541069 214.09047201 810.21972391 210.57666016 811.38574219 C207.75199944 812.33148044 205.16847842 813.3098361 202.5144043 814.67163086 C196.70345601 817.5127232 190.51624747 819.40506793 184.38916016 821.44824219 C183.66541199 821.68996155 182.94166382 821.93168091 182.19598389 822.1807251 C148.22014288 833.45953321 113.58567224 839.97555645 77.99462891 843.46386719 C76.98484734 843.56350769 76.98484734 843.56350769 75.95466614 843.66516113 C64.62743855 844.74283997 53.35530922 845.41750825 41.97509766 845.42871094 C40.75174713 845.43203934 39.52839661 845.43536774 38.26797485 845.438797 C35.69151175 845.44382415 33.11504222 845.44620664 30.53857422 845.44604492 C26.69698632 845.4482096 22.85569665 845.46635116 19.01416016 845.48535156 C-5.73712296 845.54164848 -30.26254115 844.00992644 -54.73583984 840.26074219 C-56.39969727 840.00768311 -56.39969727 840.00768311 -58.09716797 839.74951172 C-95.09809531 834.01098937 -131.7794986 824.2892016 -165.73583984 808.26074219 C-166.62770996 807.84356934 -167.51958008 807.42639648 -168.43847656 806.99658203 C-191.14790519 796.28293968 -211.09865001 783.05670833 -229.88916016 766.4621582 C-233.09226874 763.55015831 -233.09226874 763.55015831 -236.73583984 761.26074219 C-227.57306925 806.19315354 -216.30274064 851.53384815 -192.73583984 891.38574219 C-190.79756693 894.83010555 -190.00639202 897.24877916 -190.73583984 901.26074219 C-193.00054573 905.89309513 -193.00054573 905.89309513 -195.73583984 907.26074219 C-202.85719437 907.95596677 -208.92435299 906.73768252 -215.61083984 904.38574219 C-216.51286133 904.07475586 -217.41488281 903.76376953 -218.34423828 903.44335938 C-239.81232695 895.76924623 -259.13614438 883.62364994 -276.73583984 869.26074219 C-277.54819092 868.60283691 -277.54819092 868.60283691 -278.37695312 867.93164062 C-292.42696125 856.47377914 -305.75306214 843.71176548 -316.73583984 829.26074219 C-317.65063527 828.09753394 -318.5660419 826.9348062 -319.48193359 825.77246094 C-331.44115069 810.40926968 -341.45701235 793.86755734 -349.73583984 776.26074219 C-350.25404297 775.225625 -350.77224609 774.19050781 -351.30615234 773.12402344 C-359.48122112 756.41007392 -364.06692455 738.4177463 -367.73583984 720.26074219 C-368.1057605 718.57029785 -368.1057605 718.57029785 -368.4831543 716.84570312 C-370.72658511 706.00326525 -371.59248995 695.21207007 -372.24389648 684.16943359 C-372.42352171 681.1326675 -372.61851463 678.09718072 -372.81591797 675.06152344 C-373.46598213 664.78063452 -373.9463963 654.56575382 -373.73583984 644.26074219 C-374.80833984 644.19886719 -375.88083984 644.13699219 -376.98583984 644.07324219 C-393.50751913 641.9461124 -410.27215574 629.35147871 -420.42333984 616.69824219 C-421.53977168 615.22831089 -422.64887425 613.75259468 -423.73583984 612.26074219 C-424.06474623 618.9743019 -422.84684258 625.30251322 -421.61083984 631.88574219 C-421.38710693 633.07981689 -421.16337402 634.2738916 -420.93286133 635.50415039 C-418.1043356 650.10667025 -414.27977421 664.36295144 -408.56420898 678.11499023 C-406.99931398 681.98648897 -406.35463111 685.09127167 -406.73583984 689.26074219 C-409.00054573 693.89309513 -409.00054573 693.89309513 -411.73583984 695.26074219 C-419.11524348 696.10924199 -424.57722655 694.64742079 -431.11083984 691.32324219 C-431.93447021 690.9171875 -432.75810059 690.51113281 -433.60668945 690.09277344 C-440.63047194 686.52618627 -446.72226721 682.37048917 -452.73583984 677.26074219 C-453.58146484 676.57625 -454.42708984 675.89175781 -455.29833984 675.18652344 C-481.51757661 653.02307486 -496.10157928 617.08585446 -499.30224609 583.56933594 C-500.7658935 564.60178251 -500.1115747 545.97679615 -496.73583984 527.26074219 C-496.59130371 526.45330566 -496.44676758 525.64586914 -496.29785156 524.81396484 C-494.17788159 513.23277785 -491.52811849 501.75882765 -488.95410156 490.2722168 C-486.88664851 481.02118479 -484.93882845 471.75526808 -483.16064453 462.44433594 C-482.77102463 460.44160008 -482.3525028 458.44454336 -481.93115234 456.44824219 C-477.77948107 435.5614836 -476.89281681 414.10522876 -475.98583984 392.87792969 C-475.95440384 392.14532991 -475.92296783 391.41273014 -475.89057922 390.65793037 C-475.57163057 383.18914599 -475.26619023 375.72005465 -474.99308968 368.24944687 C-474.12170094 344.60165923 -472.29088029 321.12774106 -468.17919922 297.79443359 C-467.86452166 295.99612757 -467.55952081 294.19611626 -467.26123047 292.39501953 C-458.7666233 241.40296672 -437.63167581 187.80113936 -394.44140625 156.46582031 C-371.67588066 140.38070232 -344.93998699 131.25351143 -316.96630859 135.97167969 C-314.25131002 136.48231796 -311.58136421 137.0767969 -308.88818359 137.70214844 C-305.15480667 138.43141951 -305.15480667 138.43141951 -301.73583984 137.26074219 C-300.07874857 135.48968738 -298.60375742 133.72568965 -297.11083984 131.82324219 C-290.75523313 124.08264153 -283.74296761 117.02748595 -276.67333984 109.94824219 C-275.84234772 109.11016525 -275.84234772 109.11016525 -274.99456787 108.25515747 C-267.90955949 101.11745933 -260.64686659 94.49302385 -252.73583984 88.26074219 C-251.48108402 87.2360275 -250.22821298 86.20899646 -248.97802734 85.17871094 C-217.2922592 59.37110992 -181.70524423 40.08249151 -143.73583984 25.26074219 C-142.89827148 24.93348145 -142.06070312 24.6062207 -141.19775391 24.26904297 C-115.72781149 14.4681369 -88.88975852 9.01097249 -62.04833984 4.57324219 C-60.23438721 4.26942627 -60.23438721 4.26942627 -58.38378906 3.95947266 C-38.91649958 0.84522581 -19.70707291 -0.06447513 0 0 Z " fill="#1D2021" transform="translate(627.73583984375,159.7392578125)"/>
<path d="M0 0 C3.61719598 0.01070896 7.23389326 0.00004297 10.85107422 -0.01269531 C25.59203736 -0.02172753 40.09778318 0.69833629 54.75341797 2.26074219 C56.11355343 2.39896338 57.47373743 2.53670835 58.83398438 2.67382812 C62.1018031 3.01400972 65.36505203 3.38050365 68.62841797 3.76074219 C70.21976563 3.93669922 70.21976563 3.93669922 71.84326172 4.11621094 C77.93073554 4.81774138 83.79894925 5.8340852 89.75341797 7.26074219 C91.62527784 7.67204316 93.49771695 8.0807134 95.37060547 8.48730469 C145.96438225 19.70151471 194.78424395 37.89405468 237.75341797 67.26074219 C238.46336914 67.74542969 239.17332031 68.23011719 239.90478516 68.72949219 C267.48830194 87.66926947 294.00929615 109.74069502 315.75341797 135.26074219 C316.64437422 136.27721896 317.53639135 137.29276637 318.42919922 138.30761719 C337.13515324 159.67435858 353.10862387 183.37523675 366.75341797 208.26074219 C367.4557959 209.524104 367.4557959 209.524104 368.17236328 210.81298828 C387.09948596 245.03711504 400.99450111 282.62989734 409.22290039 320.85668945 C409.72281443 323.12206156 410.27010547 325.36840062 410.84326172 327.61621094 C413.07872709 336.56766671 414.11568324 345.74952916 415.31591797 354.88574219 C415.5062561 356.33412476 415.5062561 356.33412476 415.70043945 357.81176758 C415.82233643 358.75656982 415.9442334 359.70137207 416.06982422 360.67480469 C416.23140015 361.92704834 416.23140015 361.92704834 416.39624023 363.20458984 C417.27032906 370.68363559 417.91491762 378.05544431 417.95654297 385.58886719 C417.96346664 386.4481633 417.97039032 387.30745941 417.9775238 388.1927948 C417.99474823 390.96549087 418.00111693 393.73799505 418.00341797 396.51074219 C418.00475739 397.46216095 418.0060968 398.41357971 418.00747681 399.39382935 C418.00051875 422.27358787 415.79357122 444.64367269 412.06103516 467.22070312 C411.74035237 469.34738991 411.51522664 471.47335779 411.29248047 473.61230469 C410.75341797 477.26074219 410.75341797 477.26074219 408.75341797 480.26074219 C408.406249 482.92451924 408.406249 482.92451924 408.39038086 485.98535156 C408.36005768 487.18177277 408.3297345 488.37819397 408.29849243 489.61087036 C408.27459442 490.92876556 408.25069641 492.24666077 408.22607422 493.60449219 C408.19328786 495.01051049 408.15951996 496.41650619 408.12484741 497.82247925 C408.05127111 500.86534738 407.9831432 503.90827016 407.91915894 506.95135498 C407.76324553 514.32194574 407.57590834 521.69176422 407.38910866 529.06162643 C407.34525216 530.79361587 407.30170607 532.52561319 407.25845909 534.25761795 C406.74407909 554.80431297 406.03648864 575.34336081 405.2903862 595.88278198 C405.19120548 598.62778475 405.09365039 601.37284063 404.99661255 604.11791992 C404.84280188 608.46546801 404.68576338 612.81288702 404.52602005 617.1602211 C404.46770621 618.75646788 404.41028721 620.35274766 404.35386276 621.94906235 C404.08133436 629.62200971 403.73981406 637.25994326 402.97883606 644.90356445 C402.65023353 648.33973307 402.48533636 651.76952418 402.32373047 655.21777344 C402.25227224 656.66344347 402.18014477 658.10908054 402.10742188 659.5546875 C402.07046204 660.29255493 402.0335022 661.03042236 401.99542236 661.79064941 C401.30893155 675.18312907 400.35698711 688.42176694 398.17871094 701.66845703 C397.72533927 704.43189007 397.30418118 707.19936627 396.88232422 709.96777344 C394.81913308 723.06455195 391.78332572 735.63477193 387.75341797 748.26074219 C387.32053467 749.63697754 387.32053467 749.63697754 386.87890625 751.04101562 C376.57850728 783.40733148 360.68968004 812.23265335 337.17333984 836.7734375 C335.87929525 838.12889136 334.60433162 839.50249679 333.33154297 840.87792969 C317.74315516 857.25096789 297.37297684 869.68668597 275.75341797 876.26074219 C274.76341797 876.26074219 273.77341797 876.26074219 272.75341797 876.26074219 C274.84894361 868.86021722 277.38192636 861.69244659 280.12841797 854.51074219 C281.68091897 850.43141196 283.2233232 846.34853232 284.75341797 842.26074219 C285.36540039 840.63362305 285.36540039 840.63362305 285.98974609 838.97363281 C289.34168872 829.85614035 292.04100908 820.64876797 294.50341797 811.26074219 C294.71518677 810.45483643 294.92695557 809.64893066 295.1451416 808.81860352 C305.65566971 768.50119541 311.82234378 727.46496639 316.02986145 686.05392456 C316.40140593 682.43490719 316.79732579 678.82530089 317.29077148 675.22070312 C318.28319561 667.95595852 318.95340274 660.80640891 319.24560547 653.48339844 C319.27906067 652.65149994 319.31251587 651.81960144 319.34698486 650.9624939 C319.47886538 647.54976684 319.60380849 644.13711268 319.70703125 640.72338867 C320.2443238 623.66032845 320.2443238 623.66032845 323.73730469 617.26391602 C325.74376555 613.30836307 326.43943431 608.88206525 327.37841797 604.57324219 C327.7847608 602.75627249 328.19355175 600.93984826 328.60498047 599.12402344 C328.77852051 598.33294189 328.95206055 597.54186035 329.13085938 596.72680664 C329.75341797 594.26074219 329.75341797 594.26074219 330.75561523 591.56591797 C332.06171246 587.23953082 332.44528213 583.00198313 332.86669922 578.51464844 C333.06442378 576.60635776 333.26301834 574.69815707 333.46240234 572.79003906 C333.76757039 569.80440062 334.06635944 566.81858947 334.34985352 563.83081055 C334.62819875 560.93148057 334.93298365 558.03588112 335.24169922 555.13964844 C335.35763176 553.81121666 335.35763176 553.81121666 335.47590637 552.45594788 C336.12540821 546.59956127 337.59620342 542.53360627 341.75341797 538.26074219 C344.69735067 536.18277795 347.25682071 535.97242735 350.81591797 535.80371094 C351.77755859 535.74248047 352.73919922 535.68125 353.72998047 535.61816406 C355.74498279 535.50491781 357.76067524 535.40334506 359.77685547 535.31347656 C360.73849609 535.24837891 361.70013672 535.18328125 362.69091797 535.11621094 C363.56619141 535.07133545 364.44146484 535.02645996 365.34326172 534.98022461 C368.82797768 533.93996347 369.89584008 532.33929302 371.75341797 529.26074219 C372.56198174 524.62472985 372.3564264 519.9597201 372.31591797 515.26074219 C372.33976563 513.98972656 372.36361328 512.71871094 372.38818359 511.40917969 C372.38613354 504.38377178 372.38613354 504.38377178 369.96826172 497.91699219 C365.00593998 495.36046191 360.25284478 495.67542888 354.75341797 495.76074219 C343.69938385 495.93222482 343.69938385 495.93222482 339.61669922 493.03417969 C337.87454607 490.44103769 336.82949178 488.36032617 335.94091797 485.38574219 C333.39038535 478.6278349 329.42870008 475.21000292 323.11669922 471.86230469 C317.79917383 469.56847021 312.87990546 468.21377349 307.16357422 467.41699219 C306.18018066 467.27350342 305.19678711 467.13001465 304.18359375 466.98217773 C302.21737815 466.71350331 300.24485008 466.48701328 298.26855469 466.30688477 C295.45670826 465.93079845 293.29236312 465.53463702 290.75341797 464.26074219 C288.61443582 461.13887695 287.71251563 457.89362609 286.75341797 454.26074219 C286.30384381 452.98407581 285.84282937 451.71133792 285.36669922 450.44433594 C284.93744141 449.208125 284.50818359 447.97191406 284.06591797 446.69824219 C283.54959539 445.22407199 283.03262618 443.75012817 282.51513672 442.27636719 C282.23589355 441.48037109 281.95665039 440.684375 281.66894531 439.86425781 C250.67793751 350.89036198 250.67793751 350.89036198 197.96826172 273.78417969 C196.75341797 272.26074219 196.75341797 272.26074219 196.75341797 270.26074219 C193.83689623 270.0939311 193.83689623 270.0939311 190.75341797 270.26074219 C188.16225617 272.85190399 188.35787114 274.2271053 188.04248047 277.84277344 C187.93444092 278.99148926 187.82640137 280.14020508 187.71508789 281.32373047 C187.60398682 282.56106934 187.49288574 283.7984082 187.37841797 285.07324219 C186.16432766 297.326 184.38453673 309.2385208 181.75341797 321.26074219 C181.52750977 322.30536621 181.30160156 323.34999023 181.06884766 324.42626953 C178.20475908 337.56388598 175.18059422 350.55103247 170.75341797 363.26074219 C170.47272461 364.07929687 170.19203125 364.89785156 169.90283203 365.74121094 C162.05039396 388.5091266 152.67886108 410.49813026 138.75341797 430.26074219 C138.08826172 431.32679688 137.42310547 432.39285156 136.73779297 433.49121094 C134.5931662 436.62474893 132.72195296 438.89317749 129.75341797 441.26074219 C126.82788086 441.59423828 126.82788086 441.59423828 123.53857422 441.22167969 C122.29978516 441.08705322 121.06099609 440.95242676 119.78466797 440.8137207 C118.44032497 440.63377041 117.09657581 440.44933489 115.75341797 440.26074219 C115.07561279 440.16888641 114.39780762 440.07703064 113.69946289 439.98239136 C108.55565731 439.27171025 103.43553444 438.43949282 98.31591797 437.57324219 C97.5352597 437.44301666 96.75460144 437.31279114 95.95028687 437.17861938 C59.56465853 431.07198275 59.56465853 431.07198275 55.75341797 427.26074219 C55.4836165 421.04110831 56.20534217 415.15274653 57.12841797 409.01074219 C59.71275379 391.71151464 61.10515884 374.35170542 61.87841797 356.88574219 C61.92044342 355.9677182 61.96246887 355.04969421 62.00576782 354.10385132 C62.70109043 338.59402206 62.94183551 323.09777598 62.94091797 307.57324219 C62.94182434 306.55345276 62.94273071 305.53366333 62.94366455 304.48297119 C62.94337367 301.61324505 62.93459351 298.74371643 62.92138672 295.87402344 C62.92018326 295.01266281 62.9189798 294.15130219 62.91773987 293.26383972 C63.25646373 289.45365305 63.25646373 289.45365305 61.75341797 286.26074219 C60.08724682 286.22010387 58.41953702 286.21802119 56.75341797 286.26074219 C37.01642831 319.67028334 27.23448967 359.88586202 21.94091797 398.01074219 C21.8355069 398.76828796 21.73009583 399.52583374 21.62149048 400.30633545 C20.29784025 409.94601058 19.31465663 419.54290918 18.75341797 429.26074219 C5.85759273 435.42455739 -7.05124852 441.40976469 -20.43408203 446.44824219 C-21.41763672 446.82198975 -22.40119141 447.1957373 -23.41455078 447.58081055 C-28.38473289 449.41054512 -32.96701338 450.77148755 -38.24658203 451.26074219 C-48.65808253 438.18066291 -48.65808253 438.18066291 -52.40673828 430.87011719 C-53.14168845 429.26571995 -53.14168845 429.26571995 -54.24658203 428.26074219 C-55.89658203 428.26074219 -57.54658203 428.26074219 -59.24658203 428.26074219 C-62.54658203 435.85074219 -65.84658203 443.44074219 -69.24658203 451.26074219 C-89.15695857 443.29659157 -102.93027211 413.42595271 -110.98095703 395.06860352 C-112.45981178 391.5901928 -113.89360853 388.09537343 -115.30322266 384.58837891 C-116.13754136 382.5297882 -117.00219867 380.48930658 -117.88720703 378.45214844 C-124.10967393 363.76385157 -128.0710998 348.19305125 -131.99658203 332.76074219 C-132.18293213 332.03411377 -132.36928223 331.30748535 -132.5612793 330.55883789 C-136.14605129 316.05103588 -138.18049914 301.28366056 -140.12426758 286.48632812 C-140.42984663 284.1730971 -140.74569051 281.861453 -141.06298828 279.54980469 C-141.15262344 278.84473785 -141.24225861 278.13967102 -141.33460999 277.41323853 C-141.83856179 273.40787361 -141.83856179 273.40787361 -144.24658203 270.26074219 C-147.40989735 270.39469365 -148.83480236 270.85243745 -151.09814453 273.09667969 C-181.95878573 317.28041709 -201.56795587 369.712009 -214.59863281 421.69677734 C-215.17217312 423.96630271 -215.76415654 426.22951574 -216.36767578 428.49121094 C-219.28722121 439.635468 -221.29458543 450.91280056 -223.24658203 462.26074219 C-230.63611264 464.56534544 -238.21619023 465.84565295 -245.82275391 467.22949219 C-255.2220298 469.02850562 -266.09165588 471.25459146 -272.24658203 479.26074219 C-273.6607332 482.28354096 -274.84096368 485.29526842 -275.91064453 488.45605469 C-277.50035994 491.79352739 -279.19456206 493.22293193 -282.24658203 495.26074219 C-285.19183831 496.24249428 -287.14134762 496.38451252 -290.21142578 496.40136719 C-291.6587207 496.43037109 -291.6587207 496.43037109 -293.13525391 496.45996094 C-295.16370029 496.49374672 -297.19246535 496.51203914 -299.22119141 496.51464844 C-300.18734375 496.53914063 -301.15349609 496.56363281 -302.14892578 496.58886719 C-303.03056396 496.59821289 -303.91220215 496.60755859 -304.82055664 496.6171875 C-308.35561401 497.55493644 -309.3841313 499.17254885 -311.24658203 502.26074219 C-312.05031859 506.73076814 -311.84969743 511.22615224 -311.80908203 515.76074219 C-311.83292969 516.9840625 -311.85677734 518.20738281 -311.88134766 519.46777344 C-311.88549493 526.31337481 -311.88549493 526.31337481 -309.36376953 532.53808594 C-304.90348592 535.00297951 -300.83837901 535.13208024 -295.80908203 535.32324219 C-288.00785794 535.65348138 -283.30613854 536.35219763 -277.46142578 541.97949219 C-275.63840795 545.40277969 -275.28854737 548.9656968 -274.80908203 552.76074219 C-274.68911865 553.62151367 -274.56915527 554.48228516 -274.44555664 555.36914062 C-274.03405802 558.33151475 -273.63945422 561.29584223 -273.24658203 564.26074219 C-270.17120185 587.39383511 -270.17120185 587.39383511 -264.71704102 610.04931641 C-264.11172558 612.8946445 -264.00774191 615.64242019 -263.88720703 618.54980469 C-263.82637939 619.85731689 -263.76555176 621.1648291 -263.70288086 622.51196289 C-263.67014069 623.21970856 -263.63740051 623.92745422 -263.60366821 624.65664673 C-261.69145259 664.46113966 -256.88503529 703.98469706 -250.24658203 743.26074219 C-250.12174438 744.00739136 -249.99690674 744.75404053 -249.86828613 745.52331543 C-242.2460539 791.01567935 -228.32351199 834.73644336 -208.24658203 876.26074219 C-214.83118477 874.44060112 -221.02059148 872.26998904 -227.18408203 869.32324219 C-227.99256592 868.93700684 -228.8010498 868.55077148 -229.6340332 868.15283203 C-249.77607217 858.26962845 -267.16847088 844.76336046 -283.24658203 829.26074219 C-284.21047852 828.33769287 -284.21047852 828.33769287 -285.19384766 827.39599609 C-293.82942126 819.08953472 -301.84181874 810.63228621 -308.9609375 800.98632812 C-310.24990051 799.25628815 -311.57361764 797.55847349 -312.90673828 795.86230469 C-321.26667683 785.06254281 -327.77260169 773.25788071 -334.24658203 761.26074219 C-334.59624023 760.61943359 -334.94589844 759.978125 -335.30615234 759.31738281 C-357.7065367 717.97422579 -359.49560571 668.69236999 -360.9050293 622.75878906 C-360.95228149 621.2940918 -360.95228149 621.2940918 -361.00048828 619.79980469 C-361.0244165 618.96658691 -361.04834473 618.13336914 -361.07299805 617.27490234 C-361.22371865 614.65774831 -361.4595772 612.07608162 -361.73071289 609.46948242 C-362.21317535 604.77538245 -362.5309948 600.09508654 -362.74658203 595.38183594 C-362.78691559 594.5042865 -362.82724915 593.62673706 -362.86880493 592.72259521 C-363.00157779 589.71472388 -363.12555328 586.70660857 -363.24658203 583.69824219 C-363.28982605 582.63755524 -363.33307007 581.57686829 -363.37762451 580.48403931 C-365.12919466 535.78097561 -364.94457617 490.99126981 -365.24658203 446.26074219 C-366.23658203 446.26074219 -367.22658203 446.26074219 -368.24658203 446.26074219 C-370.72158203 460.61574219 -370.72158203 460.61574219 -373.24658203 475.26074219 C-374.89658203 475.26074219 -376.54658203 475.26074219 -378.24658203 475.26074219 C-385.64142532 467.8658989 -381.61926202 433.80113032 -381.62258911 423.61499023 C-381.55258619 402.9623026 -379.97893791 382.72044605 -377.24658203 362.26074219 C-377.1131842 361.25338013 -376.97978638 360.24601807 -376.84234619 359.20812988 C-371.59595322 319.83119907 -364.90598103 280.99869756 -352.24658203 243.26074219 C-351.90353027 242.2167627 -351.56047852 241.1727832 -351.20703125 240.09716797 C-350.86043457 239.04513184 -350.51383789 237.9930957 -350.15673828 236.90917969 C-349.84486572 235.96220215 -349.53299316 235.01522461 -349.21166992 234.03955078 C-347.46474424 229.00957151 -345.36581441 224.14295225 -343.24658203 219.26074219 C-342.69970014 217.96777635 -342.15282556 216.67480743 -341.60595703 215.38183594 C-327.4638856 182.35814666 -308.85393391 152.30254802 -285.24658203 125.26074219 C-284.24691406 124.09285156 -284.24691406 124.09285156 -283.22705078 122.90136719 C-271.97507089 110.02927974 -259.74518474 97.75732284 -246.24658203 87.26074219 C-244.36888655 85.65973145 -242.49404158 84.05537346 -240.62158203 82.44824219 C-209.45945555 56.4998563 -172.02525031 36.61323129 -133.91113281 23.19970703 C-131.55608417 22.36980809 -129.21141765 21.51640657 -126.86767578 20.65527344 C-106.10301966 13.19700817 -84.2816446 8.51902653 -62.55908203 4.88574219 C-61.48463837 4.70374268 -61.48463837 4.70374268 -60.38848877 4.51806641 C-40.26833579 1.14897045 -20.39680407 -0.07157739 0 0 Z " fill="#DCE9D3" transform="translate(627.24658203125,174.7392578125)"/>
<path d="M0 0 C1.24379173 -0.00430527 1.24379173 -0.00430527 2.51271057 -0.00869751 C4.25302825 -0.01072391 5.99336946 -0.00529466 7.73364258 0.00732422 C10.36918074 0.02337826 13.00318094 0.00743774 15.63867188 -0.01171875 C35.75454371 -0.03693689 35.75454371 -0.03693689 42.37890625 5.3984375 C46.73855775 13.76896839 48.08829689 23.88204791 49.51953125 33.13671875 C51.16064452 43.55723148 53.90688719 53.28693418 57.25976562 63.27978516 C58.16765895 66.10166848 58.87988418 68.96835792 59.62890625 71.8359375 C64.74321463 88.45743974 74.83941088 104.973042 90.03125 113.875 C116.15359081 127.54978244 148.92727945 126.75537344 177.64111328 126.65917969 C181.43798785 126.64844716 185.2343895 126.6591552 189.03125 126.671875 C239.77662921 127.31723583 239.77662921 127.31723583 284.78125 107.15625 C286.94140625 105.3984375 286.94140625 105.3984375 287.94140625 105.3984375 C287.38946048 119.78709264 285.93379406 134.03950947 284.27050781 148.33886719 C284.00220109 150.83324393 283.79648065 153.30887839 283.65234375 155.8125 C282.27777629 173.21059665 265.06928114 188.31468224 252.54296875 199.23046875 C235.68091173 213.28218293 217.31991884 224.16724985 197.94140625 234.3984375 C196.78511719 235.01847656 195.62882812 235.63851562 194.4375 236.27734375 C187.17855514 240.05989597 179.6284357 242.88691586 171.94433594 245.65722656 C170.08819912 246.34411483 168.25190086 247.0839796 166.41796875 247.828125 C153.72787759 252.92067785 140.49780939 256.15120446 127.27587891 259.53808594 C124.6200204 260.22334332 121.97234223 260.92787322 119.328125 261.65625 C99.67792495 266.9267366 79.12592766 269.16539185 58.94140625 271.3984375 C57.98545563 271.52331291 57.98545563 271.52331291 57.01019287 271.65071106 C48.39153554 272.67290973 39.73992895 272.60159771 31.07421875 272.63671875 C30.2126202 272.64079428 29.35102165 272.6448698 28.46331406 272.64906883 C23.87658693 272.66987086 19.28988893 272.68418137 14.703125 272.69360352 C10.99168865 272.70234197 7.28064168 272.72292958 3.56933594 272.75512695 C-35.43029881 273.0857658 -73.03188401 269.37242271 -111.05859375 260.3984375 C-112.47966431 260.0739563 -112.47966431 260.0739563 -113.92944336 259.74291992 C-157.68573936 249.73431806 -201.86036489 230.96232693 -236.05859375 201.3984375 C-236.88617188 200.69332031 -237.71375 199.98820313 -238.56640625 199.26171875 C-245.25657026 193.42093293 -251.21092571 187.06312666 -257.05859375 180.3984375 C-258.02732422 179.36589844 -258.02732422 179.36589844 -259.015625 178.3125 C-267.05805049 169.03729396 -265.88072137 152.47371277 -267.12109375 140.6484375 C-267.29594071 139.00127199 -267.47106947 137.35413637 -267.64648438 135.70703125 C-267.89422177 133.38008648 -268.14160366 131.05311203 -268.38673401 128.72589111 C-268.4602861 128.02776306 -268.5338382 127.32963501 -268.60961914 126.61035156 C-268.6817009 125.92589462 -268.75378265 125.24143768 -268.82804871 124.53623962 C-269.15631488 121.49228731 -269.508122 118.4510589 -269.86203003 115.4099884 C-270.14182765 112.54665661 -270.15413978 109.71094254 -270.12109375 106.8359375 C-270.11207031 105.80339844 -270.10304688 104.77085937 -270.09375 103.70703125 C-270.08214844 102.94519531 -270.07054687 102.18335938 -270.05859375 101.3984375 C-269.06859375 102.2646875 -268.07859375 103.1309375 -267.05859375 104.0234375 C-265.72936385 105.15328291 -264.3958496 106.27810292 -263.05859375 107.3984375 C-262.445 107.91277344 -261.83140625 108.42710937 -261.19921875 108.95703125 C-239.51270856 126.20766435 -204.87166448 126.51357803 -178.44921875 126.6015625 C-177.77522789 126.60438988 -177.10123703 126.60721725 -176.4068222 126.61013031 C-172.83126967 126.62499355 -169.25575605 126.63430074 -165.68017578 126.63867188 C-162.7871419 126.64302873 -159.89441091 126.65683006 -157.00146484 126.6796875 C-138.79547181 126.82062422 -121.11027327 126.07492302 -103.05859375 123.3984375 C-100.57915342 123.05846713 -98.0990486 122.72394378 -95.61857605 122.39160156 C-83.3587122 120.62602746 -71.17619492 117.19858157 -61.7578125 108.81640625 C-60.05859375 107.3984375 -60.05859375 107.3984375 -57.05859375 106.3984375 C-55.99288437 104.51735101 -55.99288437 104.51735101 -55.05859375 102.3984375 C-54.20401868 101.29892053 -53.3270542 100.21659692 -52.43359375 99.1484375 C-35.10167801 76.02522788 -29.64721874 44.19938624 -24.49780273 16.36743164 C-24.24945679 15.03699829 -24.24945679 15.03699829 -23.99609375 13.6796875 C-23.86203125 12.92623047 -23.72796875 12.17277344 -23.58984375 11.39648438 C-22.58542107 7.61882114 -21.02864919 5.98933693 -18.05859375 3.3984375 C-12.14097948 0.67206429 -6.44413588 -0.0504779 0 0 Z " fill="#FCFCFC" transform="translate(647.05859375,717.6015625)"/>
<path d="M0 0 C1.31135422 -0.00960754 2.62270844 -0.01921509 3.97380066 -0.02911377 C5.40872011 -0.0339756 6.84364164 -0.03825097 8.27856445 -0.04199219 C9.01485392 -0.04481956 9.75114338 -0.04764694 10.50974464 -0.05056 C14.43927997 -0.06557275 18.36877868 -0.0747775 22.29833984 -0.07910156 C25.47554496 -0.08341018 28.65246677 -0.09699329 31.82958984 -0.12011719 C48.99820661 -0.24252878 66.02132949 0.01569488 83.13012695 1.55957031 C83.8354273 1.62285271 84.54072765 1.6861351 85.26740074 1.75133514 C119.87312112 4.93165056 119.87312112 4.93165056 128.27856445 14.16503906 C133.98693552 22.11252904 135.91844398 30.40109333 135.9230957 40.05566406 C135.93743904 41.45631859 135.93743904 41.45631859 135.95207214 42.88526917 C135.97317679 45.91506078 135.96684643 48.94380378 135.9543457 51.97363281 C135.95391266 53.00893127 135.95347961 54.04422974 135.95303345 55.11090088 C135.92043388 69.38951136 135.19339433 83.40146661 133.1418457 97.53613281 C132.98208252 98.64633286 132.98208252 98.64633286 132.8190918 99.77896118 C131.67927781 107.48124552 130.23739441 114.87050831 127.4543457 122.16113281 C126.98694862 123.5261466 126.5220902 124.89203238 126.05981445 126.25878906 C123.4480113 133.67034121 121.00206612 140.40553528 115.4543457 146.16113281 C114.83172852 146.845625 114.20911133 147.53011719 113.56762695 148.23535156 C93.41212407 168.39085445 50.93768473 164.45916358 24.61080933 164.4753418 C11.90988769 164.44078564 -0.70606336 163.96944509 -13.3581543 162.84863281 C-14.03782257 162.78986969 -14.71749084 162.73110657 -15.41775513 162.67056274 C-32.09294951 161.18044334 -50.01657062 159.11327436 -61.61206055 145.78613281 C-73.87350841 129.77877773 -77.93782191 110.57035768 -81.5456543 91.16113281 C-81.89733022 89.452285 -82.25122723 87.74389154 -82.6081543 86.03613281 C-84.67728194 75.4583995 -85.87489264 65.28774124 -85.80639648 54.48510742 C-85.79560662 52.46470545 -85.80640191 50.44518122 -85.8190918 48.42480469 C-85.79723225 37.33654706 -85.41842485 26.12145346 -77.96362305 17.28613281 C-68.87976159 8.41263446 -55.89095441 6.2665691 -43.7956543 4.41113281 C-42.47213068 4.19879998 -41.14864466 3.98623272 -39.82519531 3.7734375 C-31.44580192 2.4736961 -23.17217752 1.54662574 -14.69799805 1.30175781 C-11.66961542 1.25574805 -11.66961542 1.25574805 -9.25773621 0.66241455 C-6.12557739 0.08348881 -3.18578052 0.01895391 0 0 Z " fill="#F9F9F9" transform="translate(802.545654296875,658.8388671875)"/>
<path d="M0 0 C3.15217995 0.01611218 6.30406767 0.00586766 9.45625687 -0.00373173 C92.32904258 -0.2046526 92.32904258 -0.2046526 111.10235596 16.76202393 C117.21917951 23.83804089 119.06234065 32.061646 119.11798096 41.16046143 C119.12499527 41.91658218 119.13200958 42.67270294 119.13923645 43.45173645 C119.15680785 45.90939232 119.16309842 48.36680735 119.16485596 50.82452393 C119.1655307 51.66242462 119.16620544 52.50032532 119.16690063 53.36361694 C119.14992158 66.61790868 118.4880757 79.41626722 115.91485596 92.44952393 C115.74856689 93.34058838 115.58227783 94.23165283 115.41094971 95.14971924 C113.41623094 105.65154417 110.71888555 115.74328687 106.97735596 125.76202393 C106.66580566 126.60321777 106.35425537 127.44441162 106.03326416 128.31109619 C103.70650783 134.23380256 100.62827963 139.29497363 96.91485596 144.44952393 C96.51742187 145.01356934 96.11998779 145.57761475 95.71051025 146.15875244 C89.45540091 154.39149385 80.52939025 156.87741136 70.91485596 159.44952393 C69.73407471 159.78339111 68.55329346 160.1172583 67.33673096 160.46124268 C30.98794318 169.3630746 -40.65560416 173.77423112 -73.56951904 153.95343018 C-84.46764428 146.03583248 -89.10171642 135.91361924 -93.08514404 123.44952393 C-93.32007568 122.71991455 -93.55500732 121.99030518 -93.79705811 121.23858643 C-101.84908753 95.70502997 -101.60747415 69.04429948 -98.33221436 42.63409424 C-98.11007081 40.66992381 -97.97853633 38.69601087 -97.85858154 36.72296143 C-97.05775768 27.13595577 -92.27871541 21.34339631 -86.08514404 14.44952393 C-85.36197998 13.61678955 -84.63881592 12.78405518 -83.89373779 11.92608643 C-76.18221342 3.56564709 -65.76068506 3.56250423 -54.98748779 2.35186768 C-54.20079145 2.26300734 -53.41409512 2.174147 -52.60355949 2.08259392 C-35.05832108 0.14690627 -17.63407158 -0.12799256 0 0 Z " fill="#F9F9F9" transform="translate(479.08514404296875,658.5504760742188)"/>
<path d="M0 0 C-1.65034619 4.99033254 -4.54938792 8.96183844 -7.5 13.25 C-13.38744634 21.96144131 -18.87732723 30.81833564 -24 40 C-24.66298096 41.18819336 -24.66298096 41.18819336 -25.33935547 42.40039062 C-35.87317727 61.47120752 -46.55527717 82.80657493 -51.75390625 104.0859375 C-53.4256657 107.99544392 -56.15963555 109.97612689 -59.4375 112.5 C-90.69624888 138.0044709 -105.30610138 183.24634595 -110.66894531 221.76806641 C-111.09798558 224.6606078 -111.62988148 227.52875186 -112.16967773 230.40234375 C-114.81421038 244.52404944 -116.09273511 258.7151485 -116.65869141 273.0637207 C-116.6901123 273.8393335 -116.7215332 274.61494629 -116.75390625 275.4140625 C-116.77783447 276.0838916 -116.8017627 276.7537207 -116.82641602 277.44384766 C-116.96906859 279.54451212 -117.223728 281.6372724 -117.50878906 283.72338867 C-118.25780209 290.32690451 -118.1197521 296.96266068 -118.10753441 303.59854698 C-118.10396073 307.7734427 -118.12987535 311.9482126 -118.15039062 316.12304688 C-118.1746358 321.40465615 -118.19046401 326.68587217 -118.17504883 331.9675293 C-118.16328641 336.26416694 -118.18104374 340.55984462 -118.21749306 344.85633278 C-118.226017 346.47752637 -118.22417057 348.09881402 -118.210989 349.71997643 C-118.13706116 359.54678125 -119.13156079 367.05673448 -123.53144836 375.91804504 C-127.74943732 384.77006743 -128.25284929 394.05390985 -128.3125 403.6875 C-128.32095947 404.96959351 -128.32095947 404.96959351 -128.32958984 406.27758789 C-128.27989705 410.67034681 -127.91185412 414.75636791 -127.015625 419.05859375 C-125.49885785 426.75779883 -125.57078231 434.55687469 -125.4375 442.375 C-125.12556603 458.39783784 -124.16541901 473.77395574 -120.875 489.5 C-120.72304169 490.23869324 -120.57108337 490.97738647 -120.41452026 491.73846436 C-117.84360382 504.16190329 -114.49246928 516.120218 -110 528 C-129.13794287 522.52792352 -146.29835508 502.82431195 -155.85302734 486.15039062 C-167.9871354 463.40087514 -173.61454065 439.87346146 -173.4375 414.25 C-173.43578796 413.37080902 -173.43407593 412.49161804 -173.43231201 411.58578491 C-173.39167788 399.43604273 -172.71899921 387.99616585 -169.52246094 376.2199707 C-168.90509951 373.59676163 -168.52696308 370.98084781 -168.1484375 368.3125 C-166.8712259 359.6300984 -164.97519443 351.08636299 -163.11376953 342.5144043 C-162.49760538 339.67647085 -161.88701246 336.83738211 -161.27734375 333.99804688 C-160.88313353 332.16920161 -160.48861318 330.34042315 -160.09375 328.51171875 C-159.91348267 327.67509201 -159.73321533 326.83846527 -159.54748535 325.97648621 C-158.73249728 322.22830236 -157.88280497 318.50054284 -156.92016602 314.78735352 C-156.1120047 311.46100527 -155.560845 308.28728241 -155.18359375 304.890625 C-155.05919922 303.80652344 -154.93480469 302.72242188 -154.80664062 301.60546875 C-154.68482422 300.49816406 -154.56300781 299.39085937 -154.4375 298.25 C-154.1885202 296.02578048 -153.93731158 293.80180903 -153.68359375 291.578125 C-153.57587646 290.60262695 -153.46815918 289.62712891 -153.35717773 288.62207031 C-153 286 -153 286 -152.48632812 283.96411133 C-151.39877948 279.57187797 -151.37660951 274.93782105 -151.0625 270.4375 C-150.97677734 269.2294873 -150.89105469 268.02147461 -150.80273438 266.77685547 C-150.09406529 256.3291593 -149.59241804 245.8752996 -149.12481689 235.41436768 C-148.76063521 227.27575304 -148.38371844 219.13771535 -148 211 C-147.9658197 210.27045105 -147.9316394 209.5409021 -147.89642334 208.78924561 C-144.90231757 145.68944458 -133.51611011 75.58352477 -87 29 C-85.72769531 27.71029297 -85.72769531 27.71029297 -84.4296875 26.39453125 C-74.27787587 16.62151856 -62.05047558 9.24599019 -49 4 C-47.99646484 3.55914062 -47.99646484 3.55914062 -46.97265625 3.109375 C-33.3219824 -2.58538464 -14.35651252 -3.24189747 0 0 Z " fill="#DCE8D3" transform="translate(315,311)"/>
<path d="M0 0 C0.33 0 0.66 0 1 0 C1.441144 17.75661143 0.77642668 35.34471786 -0.375 53.0625 C-0.46982162 54.54352707 -0.46982162 54.54352707 -0.56655884 56.05447388 C-1.28957963 67.21873485 -2.15754208 78.35431847 -3.34396362 89.47962952 C-5.17465846 99.4794741 -5.17465846 99.4794741 -2.76928711 108.52392578 C-0.6640032 110.28031415 1.03928628 110.85802622 3.671875 111.61328125 C4.63077637 111.88889893 5.58967773 112.1645166 6.57763672 112.44848633 C7.6245166 112.73361084 8.67139648 113.01873535 9.75 113.3125 C10.8445752 113.61373779 11.93915039 113.91497559 13.06689453 114.2253418 C32.90525551 119.52029283 53.47948824 123.7916856 74 125 C74.70398926 125.04527832 75.40797852 125.09055664 76.13330078 125.13720703 C79.20334227 125.25525836 81.49729444 125.26357132 84.25 123.8203125 C89.98500821 118.26452329 95.98331447 112.32227827 99.390625 105.01953125 C102.84588516 97.83372921 102.84588516 97.83372921 106.95166016 96.24462891 C112.55319143 94.83181576 118.25471178 94.41628943 124 94 C125.10730469 93.87496094 126.21460938 93.74992188 127.35546875 93.62109375 C150.87248778 91.1668738 174.54579432 93.5545561 197.56835938 98.48095703 C199.14814178 98.81816761 200.73013098 99.14525601 202.31445312 99.46044922 C204.4053543 99.88020644 206.48329484 100.33859971 208.5625 100.8125 C209.71878906 101.06644531 210.87507813 101.32039062 212.06640625 101.58203125 C217.2175911 104.07188491 218.67722246 108.96459212 220.5625 114.05078125 C221.04808187 115.46917413 221.52711577 116.88982344 222 118.3125 C222.51139931 119.8078472 223.02441666 121.30264203 223.5390625 122.796875 C223.7855957 123.51423828 224.03212891 124.23160156 224.28613281 124.97070312 C225.71667797 129.03728704 227.35281596 133.01777307 229 137 C225.83323058 136.85634987 222.66660945 136.70963095 219.5 136.5625 C218.63246094 136.52318359 217.76492188 136.48386719 216.87109375 136.44335938 C211.42373122 136.18862659 205.9861272 135.86423904 200.54541016 135.49291992 C192.73460794 134.98867905 184.9447624 134.82410004 177.1171875 134.796875 C175.74092583 134.78988963 174.36466444 134.78284874 172.98840332 134.77575684 C168.61726471 134.75650558 164.2461764 134.75158121 159.875 134.75 C159.13030708 134.74941086 158.38561417 134.74882172 157.6183548 134.74821472 C88.18539102 132.15854024 88.18539102 132.15854024 26.625 157.5625 C21.09645564 163.55956507 17.00851958 171.7918851 15.1171875 179.68359375 C13.76879982 183.68632502 12.49975595 184.71692091 9 187 C6.19250488 187.5146637 6.19250488 187.5146637 3.09570312 187.53344727 C1.93099487 187.5492836 0.76628662 187.56511993 -0.43371582 187.58143616 C-2.30730774 187.57399635 -2.30730774 187.57399635 -4.21875 187.56640625 C-5.50938354 187.57260483 -6.80001709 187.57880341 -8.12976074 187.58518982 C-10.85670868 187.59557719 -13.58313423 187.59105691 -16.31005859 187.57641602 C-19.79747234 187.5592206 -23.28323958 187.58273747 -26.77046967 187.61790562 C-30.107493 187.6451967 -33.44412025 187.63514273 -36.78125 187.62890625 C-38.03031128 187.64216446 -39.27937256 187.65542267 -40.56628418 187.66908264 C-50.19043422 187.56551976 -50.19043422 187.56551976 -53.24047852 184.64697266 C-55.16474819 181.75215765 -56.3408963 179.11034483 -57.4375 175.8125 C-61.85219052 163.71652133 -67.36259197 155.92256902 -78.875 149.8125 C-80.24180692 149.19002011 -81.61731332 148.58636158 -83 148 C-83.71671875 147.67386719 -84.4334375 147.34773437 -85.171875 147.01171875 C-94.96309773 142.97361893 -105.60438165 141.66562552 -116 140 C-116.89106445 139.85675293 -117.78212891 139.71350586 -118.70019531 139.56591797 C-124.78770497 138.60503077 -130.88754086 137.78407263 -137 137 C-137.73256012 136.90268082 -138.46512024 136.80536163 -139.21987915 136.70509338 C-158.9934274 134.17830056 -178.97555238 134.73368635 -198.86694336 134.80438232 C-202.73191439 134.81526473 -206.59685024 134.81484875 -210.46183395 134.81424427 C-214.21609477 134.81451708 -217.97033316 134.8200138 -221.72458649 134.82724571 C-223.50261517 134.8304003 -225.28064635 134.83239217 -227.05867767 134.83313942 C-239.12074273 134.80861662 -239.12074273 134.80861662 -251.13528442 135.77761841 C-253.80258995 136.09571499 -256.4419258 136.09689839 -259.125 136.0625 C-260.05570312 136.05347656 -260.98640625 136.04445313 -261.9453125 136.03515625 C-262.62335938 136.02355469 -263.30140625 136.01195312 -264 136 C-263.38559346 128.79945509 -261.9482926 122.0488236 -260.125 115.0625 C-259.86847656 114.02287109 -259.61195313 112.98324219 -259.34765625 111.91210938 C-259.09113281 110.92146484 -258.83460938 109.93082031 -258.5703125 108.91015625 C-258.34102051 108.01433838 -258.11172852 107.11852051 -257.87548828 106.19555664 C-257 104 -257 104 -254 102 C-252.16393846 101.46001308 -250.30701284 100.98937225 -248.44140625 100.5625 C-247.33216797 100.30726563 -246.22292969 100.05203125 -245.08007812 99.7890625 C-243.91927734 99.52867187 -242.75847656 99.26828125 -241.5625 99 C-239.87350586 98.60941406 -239.87350586 98.60941406 -238.15039062 98.2109375 C-219.40839229 93.94306439 -201.31414808 92.56998947 -182.125 92.94189453 C-180.12783031 92.97902941 -178.13032089 93.00222159 -176.1328125 93.00732422 C-162.08932527 93.11163273 -162.08932527 93.11163273 -157.44140625 97.3125 C-155.37270373 100.44260925 -153.71902604 103.6663573 -152 107 C-150.3361712 109.46216819 -148.53392083 111.79762429 -146.6875 114.125 C-146.2236792 114.7130542 -145.7598584 115.3011084 -145.28198242 115.90698242 C-139.33835815 123.27215342 -131.18412199 132.96316608 -122 136 C-118.97005089 136.21610027 -118.97005089 136.21610027 -116 135 C-114.2456524 132.6439916 -112.98514201 130.64498676 -111.6875 128.0625 C-111.34138672 127.41603516 -110.99527344 126.76957031 -110.63867188 126.10351562 C-109.38747017 123.75476856 -108.19009379 121.38018758 -107 119 C-106.34 119 -105.68 119 -105 119 C-103.6662784 120.68113694 -102.40728884 122.42195478 -101.1875 124.1875 C-97.15531435 130.13865309 -97.15531435 130.13865309 -92 135 C-84.36277857 135.89902024 -78.17263742 133.23216291 -71.125 130.5 C-69.92915283 130.04512207 -68.73330566 129.59024414 -67.5012207 129.12158203 C-57.84436755 125.41055513 -48.30147675 121.53295474 -39 117 C-38.31502441 116.67290039 -37.63004883 116.34580078 -36.92431641 116.00878906 C-34.92976846 115.04010314 -32.96328067 114.03035982 -31 113 C-29.88625 112.4225 -28.7725 111.845 -27.625 111.25 C-22.53835127 106.89001538 -22.77725596 99.81194903 -22.11425781 93.49267578 C-18.78549877 61.85869218 -11.29674022 29.71084059 0 0 Z " fill="#FAFAFA" transform="translate(678,500)"/>
<path d="M0 0 C0.79496887 -0.00261841 1.58993774 -0.00523682 2.40899658 -0.00793457 C19.75011779 -0.014034 36.02945085 2.22662448 52.6171875 7.3828125 C56.05502181 8.38306258 59.48481258 9.07429443 63 9.75 C69.07823853 10.9917169 77.25106244 12.75106244 81.8125 17.3125 C81.626875 18.8284375 81.626875 18.8284375 81.4375 20.375 C81.97834448 26.05386708 84.95227342 28.35406805 88.8125 32.3125 C89.98470362 33.70368672 91.15151044 35.09944117 92.3125 36.5 C94.60216166 39.16348397 96.78200242 41.06831842 99.75 42.9375 C102.8125 45.3125 102.8125 45.3125 103.375 48.5 C102.8125 51.3125 102.8125 51.3125 100.8125 53.3125 C99.141875 53.498125 99.141875 53.498125 97.4375 53.6875 C93.16216683 54.42462641 92.38845213 54.89858754 89.8125 58.3125 C88.64381259 61.54142724 87.87213518 64.85330991 87.0625 68.1875 C83.87173436 80.29740876 79.0084823 89.78129701 70.8125 99.3125 C69.4925 98.9825 68.1725 98.6525 66.8125 98.3125 C68.61551508 90.12958543 68.61551508 90.12958543 69.578125 86.13671875 C71.08428841 79.85365474 72.4502027 73.76711239 72.8125 67.3125 C72.86631836 66.68263184 72.92013672 66.05276367 72.97558594 65.40380859 C73.83642802 56.34959529 73.83642802 56.34959529 71.5546875 47.75390625 C69.46840057 45.50956728 67.39024611 43.97698749 64.8125 42.3125 C63.98395508 41.7565918 63.98395508 41.7565918 63.13867188 41.18945312 C55.44785614 36.07053909 47.71365963 31.9587907 38.8125 29.3125 C39.12703125 30.14910156 39.4415625 30.98570312 39.765625 31.84765625 C40.92662426 35.00543437 42.04364217 38.17234806 43.13232422 41.35546875 C43.73898835 43.10098911 44.38447897 44.83290416 45.03515625 46.5625 C52.22415857 68.41294433 49.10254097 94.81639143 39.3984375 115.296875 C35.58279209 122.68331158 30.90504594 129.71496034 23.8125 134.3125 C22.8225 134.3125 21.8325 134.3125 20.8125 134.3125 C22.20501306 131.38228295 23.83513666 128.7638241 25.625 126.0625 C28.32294579 121.59464875 30.11033766 117.13361 31.6875 112.1875 C31.90253174 111.53104492 32.11756348 110.87458984 32.33911133 110.19824219 C35.7776751 98.80933233 32.73106476 87.91947612 27.2421875 77.65625 C21.52493337 68.28370225 13.06185856 61.71854573 2.5625 58.375 C-6.71018435 56.21670278 -16.15700024 56.40653149 -25.1875 59.3125 C-24.0584574 57.05441481 -22.94222702 54.93515695 -21.5625 52.8125 C-19.53127023 47.64209696 -19.51596307 42.79797586 -20.1875 37.3125 C-22.9796595 31.40600874 -28.13772837 26.84444146 -34.1875 24.3125 C-40.89791268 23.33104508 -46.68410302 24.26259612 -52.1875 28.3125 C-53.425 29.7975 -53.425 29.7975 -54.6875 31.3125 C-57.73380748 34.96806898 -60.72751252 36.74790762 -65.1875 38.3125 C-68.1875 38.5625 -68.1875 38.5625 -70.1875 38.3125 C-70.1875 37.3225 -70.1875 36.3325 -70.1875 35.3125 C-71.1775 35.8075 -71.1775 35.8075 -72.1875 36.3125 C-74.18710012 36.352492 -76.18797242 36.35596799 -78.1875 36.3125 C-78.875 34.0546875 -78.875 34.0546875 -79.1875 31.3125 C-78 29.3203125 -78 29.3203125 -76.1875 27.4375 C-75.52878906 26.74914062 -74.87007812 26.06078125 -74.19140625 25.3515625 C-73.53011719 24.67867187 -72.86882813 24.00578125 -72.1875 23.3125 C-71.68089844 22.72210937 -71.17429687 22.13171875 -70.65234375 21.5234375 C-53.43992839 2.24201058 -23.99913184 0.07571683 0 0 Z " fill="#1E2122" transform="translate(830.1875,674.6875)"/>
<path d="M0 0 C2.28168696 -0.00217649 4.56288111 -0.02036504 6.84448242 -0.03930664 C32.84134475 -0.13982243 58.106218 5.41243554 77.1159668 24.18530273 C79.31080109 26.74456235 81.30513043 29.34197195 83.1159668 32.18530273 C82.4559668 33.50530273 81.7959668 34.82530273 81.1159668 36.18530273 C76.3659668 35.31030273 76.3659668 35.31030273 74.1159668 34.18530273 C74.1159668 35.83530273 74.1159668 37.48530273 74.1159668 39.18530273 C71.7409668 39.31030273 71.7409668 39.31030273 69.1159668 39.18530273 C68.4559668 38.52530273 67.7959668 37.86530273 67.1159668 37.18530273 C64.79947881 36.14687708 62.46693656 35.14310523 60.1159668 34.18530273 C60.71924805 35.3415918 61.3225293 36.49788086 61.9440918 37.68920898 C71.96552382 57.87788753 72.70727254 86.33940342 66.36987305 107.86889648 C62.75566578 117.42796804 57.6578755 125.2036501 50.1159668 132.18530273 C49.1259668 132.51530273 48.1359668 132.84530273 47.1159668 133.18530273 C48.47480137 129.70368052 49.96591223 126.31812928 51.5534668 122.93530273 C57.51363261 109.71008274 59.05323642 99.15158577 54.2722168 85.01342773 C52.90189092 81.6616847 51.29240672 79.06131263 49.1159668 76.18530273 C49.1159668 75.52530273 49.1159668 74.86530273 49.1159668 74.18530273 C48.4559668 74.18530273 47.7959668 74.18530273 47.1159668 74.18530273 C46.04735684 73.01900821 45.035667 71.80024342 44.0534668 70.56030273 C36.55939995 61.83010115 27.86473376 57.77693712 16.43237305 56.90405273 C8.81608136 56.71997318 2.22037364 57.3769725 -4.8840332 60.18530273 C-3.72344223 57.83889055 -2.52693403 55.5397773 -1.2590332 53.24780273 C1.01333731 47.78469434 0.97223712 41.96512743 0.1159668 36.18530273 C-1.9981307 31.10826556 -5.3456821 28.14476935 -10.1965332 25.68530273 C-15.42940613 23.71858539 -20.59555793 22.88638668 -25.91137695 24.98608398 C-27.24983626 25.67254133 -28.57408097 26.38730235 -29.8840332 27.12670898 C-31.87682114 28.18148541 -33.72285353 28.80905181 -35.8840332 29.43530273 C-46.70158443 32.89090938 -57.48874006 38.52003508 -65.8840332 46.18530273 C-66.60977539 46.71897461 -67.33551758 47.25264648 -68.08325195 47.80249023 C-70.87833427 51.50097226 -70.51961965 55.04091794 -70.4465332 59.56030273 C-70.43771118 60.93424194 -70.43771118 60.93424194 -70.42871094 62.3359375 C-70.16858298 72.19152508 -67.92538733 81.4710737 -65.43530273 90.96606445 C-64.75996185 93.68477511 -64.28136458 96.41311712 -63.8840332 99.18530273 C-66.86885249 98.86440919 -68.47202393 98.58551439 -70.6574707 96.46264648 C-78.07996344 85.61856564 -82.88243855 73.8624749 -85.7668457 61.07592773 C-87.1453801 57.50909048 -88.67421904 56.20523063 -91.8840332 54.18530273 C-94.21410231 53.82986846 -96.54730336 53.49392743 -98.8840332 53.18530273 C-100.8840332 50.18530273 -100.8840332 50.18530273 -100.8215332 47.68530273 C-99.8840332 45.18530273 -99.8840332 45.18530273 -97.59887695 43.86108398 C-94.44368518 41.91349079 -92.75832779 39.80825398 -90.5090332 36.87280273 C-87.81597415 33.43543088 -85.33936365 30.58087499 -81.8215332 27.99780273 C-79.36159051 26.08014796 -79.36159051 26.08014796 -78.5949707 23.15405273 C-78.68868889 21.16434349 -78.78618842 19.17481332 -78.8840332 17.18530273 C-75.96942063 13.51035645 -70.31991819 12.27678232 -65.8840332 11.18530273 C-64.30360365 11.02778484 -62.71957012 10.90326581 -61.1340332 10.81030273 C-56.98487501 10.4984795 -53.72691638 9.46113008 -49.8840332 7.87280273 C-44.54922142 5.69468431 -39.30591131 4.1759281 -33.6965332 2.93530273 C-32.97272461 2.77247803 -32.24891602 2.60965332 -31.50317383 2.44189453 C-21.0551814 0.2203984 -10.64292046 -0.00113162 0 0 Z " fill="#1F2223" transform="translate(481.884033203125,674.814697265625)"/>
<path d="M0 0 C0.66 0 1.32 0 2 0 C3.32177734 1.59448242 3.32177734 1.59448242 4.8359375 3.85546875 C5.39925781 4.69408447 5.96257813 5.5327002 6.54296875 6.39672852 C7.14753906 7.31768311 7.75210938 8.2386377 8.375 9.1875 C9.00277344 10.14003662 9.63054688 11.09257324 10.27734375 12.07397461 C28.3247932 39.74900914 42.32124654 69.56694099 55 100 C55.25624146 100.61385559 55.51248291 101.22771118 55.77648926 101.86016846 C57.49548991 105.98227843 59.19196408 110.11308807 60.875 114.25 C61.31038086 115.30985107 61.74576172 116.36970215 62.19433594 117.46166992 C62.58137695 118.4282251 62.96841797 119.39478027 63.3671875 120.390625 C63.70862793 121.23657227 64.05006836 122.08251953 64.40185547 122.95410156 C65 125 65 125 64 127 C62.68515625 126.63648438 62.68515625 126.63648438 61.34375 126.265625 C56.91261959 125.09479786 52.46552946 124.03037381 48 123 C47.19594727 122.80792969 46.39189453 122.61585938 45.56347656 122.41796875 C31.22154906 119.11477511 17.15140656 118.62307771 2.5 118.625 C1.6048468 118.62318726 0.7096936 118.62137451 -0.21258545 118.61950684 C-11.63129772 118.62212311 -22.7045371 119.275517 -34 121 C-32.79067883 117.92382693 -31.52293333 114.90140254 -30.1171875 111.91015625 C-18.01195472 85.83860297 -8.79220882 58.35125817 -4.47265625 29.859375 C-4 27 -4 27 -3 25 C-2.70970998 23.11757946 -2.46586575 21.22788773 -2.24609375 19.3359375 C-2.11396484 18.21445312 -1.98183594 17.09296875 -1.84570312 15.9375 C-1.71099609 14.761875 -1.57628906 13.58625 -1.4375 12.375 C-1.22963867 10.59996094 -1.22963867 10.59996094 -1.01757812 8.7890625 C-0.67503734 5.85974822 -0.33599414 2.93007121 0 0 Z " fill="#FAFAFA" transform="translate(824,465)"/>
<path d="M0 0 C1.04994141 0.10054687 1.04994141 0.10054687 2.12109375 0.203125 C5.46352687 0.95183002 8.43155448 2.37896967 11.5625 3.75 C11.57280746 4.70259705 11.58311493 5.65519409 11.59373474 6.63665771 C11.69282455 15.75198946 11.79564635 24.86727304 11.90183926 33.98252487 C11.95628083 38.66525278 12.0095458 43.34798701 12.05981445 48.03076172 C12.2723194 67.75137973 12.53931364 87.45191216 13.35742188 107.15820312 C13.64743338 114.35663853 13.6631627 121.54702479 13.5625 128.75 C-2.99271983 125.76655049 -16.23863786 115.3177116 -26.125 102.0625 C-36.03095146 87.08675735 -40.73334558 71.31483776 -40.875 53.4375 C-40.88523193 52.44758057 -40.89546387 51.45766113 -40.90600586 50.43774414 C-40.72143614 34.96873633 -34.66811388 20.04954295 -23.90234375 8.87890625 C-17.03543274 2.94789753 -9.24051817 -1.01730475 0 0 Z " fill="#FBFBFB" transform="translate(240.4375,661.25)"/>
<path d="M0 0 C0.33 0 0.66 0 1 0 C1.10957031 0.80824219 1.21914063 1.61648438 1.33203125 2.44921875 C1.49058594 3.51785156 1.64914062 4.58648438 1.8125 5.6875 C2.03873047 7.27111328 2.03873047 7.27111328 2.26953125 8.88671875 C3.42875191 13.8273544 5.92400267 17.79782373 9.9296875 20.98828125 C15.38925644 23.65625928 22.43515904 23.72518759 28.19140625 22.09765625 C30.29161796 21.27685028 32.3707877 20.40183809 34.4375 19.5 C45.23237134 14.95479102 57.1173086 14.29423105 68.3671875 17.8203125 C75.39332814 20.96852388 81.99935886 26.13717935 87 32 C87 32.66 87 33.32 87 34 C87.66 34 88.32 34 89 34 C95.92871657 42.89732128 98.73279285 53.28780404 98.4921875 64.44921875 C97.29551171 73.08237981 93.68108937 81.69019078 89 89 C85.94336617 86.16217076 83.89608605 83.35125984 81.8125 79.75 C76.90811956 71.87773269 70.04736282 64.64478485 60.70703125 62.46484375 C51.09804248 60.81481538 43.9224074 61.45714527 35.6640625 66.8828125 C28.81029242 72.32965031 24.13630346 79.46922066 22 88 C22.09619415 91.46162625 22.09619415 91.46162625 23 94 C18.17769936 93.57450288 15.23466984 91.42355567 12 88 C-4.29180573 67.95132554 -6.41160265 43.88120984 -5 19 C-4.18315249 12.60136117 -2.90465143 5.80930285 0 0 Z " fill="#BBDAAD" transform="translate(442,715)"/>
<path d="M0 0 C0.66 0 1.32 0 2 0 C2.09796875 0.58007812 2.1959375 1.16015625 2.296875 1.7578125 C3.51956868 8.14533293 5.47304458 12.4213782 10.1015625 17.14453125 C14.02599342 19.65680172 17.0080905 19.52355585 21.5625 19.375 C22.31724609 19.37371094 23.07199219 19.37242187 23.84960938 19.37109375 C29.18266939 19.28651659 32.24271211 18.75728789 36 15 C46.49633245 11.34179546 58.72652874 11.69769683 69 16 C81.94902756 22.57247754 90.29748131 32.67883707 94.8125 46.484375 C96.75089039 54.29178072 96.35809923 61.30108235 93.875 68.875 C93.54266357 69.90947266 93.54266357 69.90947266 93.20361328 70.96484375 C91.28775647 76.65524427 89.0093549 82.44291902 85 87 C84.01 87 83.02 87 82 87 C81.78085937 86.39414062 81.56171875 85.78828125 81.3359375 85.1640625 C77.90029742 76.08615171 74.1713387 66.47648675 65 62 C56.33829864 58.35140662 47.51830891 57.41171045 38.625 60.75 C28.46171063 65.39150223 23.04274741 73.98255608 18.62890625 83.9921875 C17.8007272 86.28552032 17.8007272 86.28552032 18 90 C10.51912475 87.66881176 6.05623627 80.74781981 2.4140625 74.109375 C1.18156889 71.43523735 0.07149117 68.74200497 -1 66 C-1.30679688 65.34773437 -1.61359375 64.69546875 -1.9296875 64.0234375 C-4.4871577 58.29957562 -4.72882831 52.3941426 -4.92822266 46.19042969 C-4.97873357 44.64898768 -5.04207834 43.10793928 -5.11474609 41.56738281 C-5.76488423 27.01196951 -3.85585621 14.03285543 0 0 Z " fill="#BADAAC" transform="translate(769,718)"/>
<path d="M0 0 C0.66 0 1.32 0 2 0 C2.15082031 1.75957031 2.15082031 1.75957031 2.3046875 3.5546875 C5.04691369 30.61291358 12.03249551 57.65970695 20.9375 83.3125 C21.17033691 83.98417206 21.40317383 84.65584412 21.64306641 85.34786987 C23.70165986 91.22903136 25.71616447 96.69167737 29 102 C30.01529541 104.32671865 31.01488198 106.6603447 32 109 C32.556875 110.093125 33.11375 111.18625 33.6875 112.3125 C35 115 35 115 35 117 C33.82421387 116.97381592 32.64842773 116.94763184 31.43701172 116.9206543 C5.80630137 116.40070191 -18.57897018 116.66415339 -43.546875 123.1640625 C-47 124 -47 124 -51 124 C-50.26415951 118.00085603 -48.35470594 112.4135296 -46.5 106.6875 C-46.14325195 105.58446533 -45.78650391 104.48143066 -45.41894531 103.3449707 C-33.72624801 67.5112802 -19.48360176 32.37456486 0 0 Z " fill="#FAFAFA" transform="translate(476,467)"/>
<path d="M0 0 C11.19704021 2.63277571 19.39880517 10.58460323 25.41015625 20.01953125 C35.26544589 38.45055635 36.1793129 58.43621087 30.3046875 78.109375 C26.78802496 89.18558702 22.15013335 98.56982369 14.82421875 107.6640625 C14.10298828 108.63085938 14.10298828 108.63085938 13.3671875 109.6171875 C7.34144879 117.32735461 -1.32484882 122.73031476 -10.17578125 126.6640625 C-10.50578125 126.6640625 -10.83578125 126.6640625 -11.17578125 126.6640625 C-11.31194565 98.41728198 -11.19586254 70.17046507 -10.912323 41.92492676 C-10.87799954 38.45236909 -10.85084226 34.97986407 -10.82962036 31.50720215 C-10.8039343 27.36851693 -10.76379073 23.23021873 -10.71265793 19.09177208 C-10.69598177 17.54727505 -10.68441933 16.00271375 -10.67815018 14.45813942 C-10.6686111 12.33503499 -10.64074097 10.21294538 -10.6081543 8.09008789 C-10.59705124 6.89219131 -10.58594818 5.69429474 -10.57450867 4.46009827 C-10.44292862 3.53740646 -10.31134857 2.61471466 -10.17578125 1.6640625 C-6.33928039 -0.89360474 -4.44500924 -0.55805955 0 0 Z " fill="#F9F9F9" transform="translate(1055.17578125,662.3359375)"/>
<path d="M0 0 C1.36662826 2.73325651 0.67840689 3.98479623 -0.07421875 6.92578125 C-0.33009766 7.95251953 -0.58597656 8.97925781 -0.84960938 10.03710938 C-1.12611328 11.11798828 -1.40261719 12.19886719 -1.6875 13.3125 C-6.7425114 33.11446194 -9.90001473 53.12709627 -12.5625 73.375 C-12.71341095 74.51773376 -12.8643219 75.66046753 -13.01980591 76.83782959 C-13.90844191 83.58882728 -14.77925715 90.34190651 -15.63293457 97.09741211 C-15.8603815 98.8959599 -16.0891979 100.69433578 -16.32019043 102.49243164 C-20.55896621 135.49420057 -20.0445537 168.90667295 -17 202 C-17.6609668 202.11682129 -18.32193359 202.23364258 -19.00292969 202.35400391 C-23.72338975 203.23401649 -27.97704425 204.0931835 -32.25 206.375 C-33.01828125 206.77460937 -33.7865625 207.17421875 -34.578125 207.5859375 C-37.46830115 209.27342745 -40.22151703 211.1354541 -43 213 C-43.66027664 119.92195522 -43.66027664 119.92195522 -34 78 C-33.66084506 76.40638039 -33.32235509 74.81261919 -32.984375 73.21875 C-27.45224993 47.86515875 -17.88204262 19.55848412 0 0 Z " fill="#F9F9F9" transform="translate(252,446)"/>
<path d="M0 0 C10.26508222 5.18142245 18.24468183 14.69945857 23.05078125 25.03515625 C23.42578125 28.66015625 23.42578125 28.66015625 23.05078125 31.03515625 C22.49261719 31.16019531 21.93445313 31.28523437 21.359375 31.4140625 C18.84949093 32.0893105 16.52747897 33.01060753 14.11328125 33.97265625 C-5.77741434 41.19847037 -25.35473809 38.36190079 -44.94921875 32.03515625 C-43.46421875 31.54015625 -43.46421875 31.54015625 -41.94921875 31.03515625 C-42.36171875 30.25140625 -42.77421875 29.46765625 -43.19921875 28.66015625 C-44.4792874 22.47315776 -41.68235934 17.73304998 -38.36328125 12.56640625 C-34.79864266 7.72753034 -31.09341062 4.12167137 -25.94921875 1.03515625 C-24.64984375 0.13796875 -24.64984375 0.13796875 -23.32421875 -0.77734375 C-15.92079555 -3.38225191 -7.29034329 -2.86549142 0 0 Z " fill="#D9E6CF" transform="translate(506.94921875,777.96484375)"/>
<path d="M0 0 C8.93076576 7.51726327 10.83306208 21.60061171 12.35546875 32.55859375 C12.5 34.6875 12.5 34.6875 12 38 C8.81221776 41.18778224 4.51181163 41.90089546 0.1171875 42.25390625 C-2 42 -2 42 -4.375 39.5 C-4.75140625 38.94699219 -5.1278125 38.39398437 -5.515625 37.82421875 C-11.08638407 30.97804905 -20.46767377 27.20947923 -29 26 C-36.76272952 25.50280038 -43.60177288 25.61928845 -51 28 C-49.8709574 25.74191481 -48.75472702 23.62265695 -47.375 21.5 C-45.34761361 16.33938009 -45.30799795 11.47584232 -46 6 C-47.63452093 2.50273479 -47.63452093 2.50273479 -50 0 C-51.00767922 -1.32753921 -52.00910875 -2.65988347 -53 -4 C-36.5603863 -9.7419025 -15.29893966 -8.69421689 0 0 Z " fill="#4C5A50" transform="translate(856,706)"/>
<path d="M0 0 C6.81768922 5.56686317 11.596532 14.97214305 13.75 23.4375 C13.61328125 25.5625 13.61328125 25.5625 12.75 27.4375 C1.80336283 35.90477063 -15.05428709 35.43215173 -28.25 34.4375 C-32.70739123 33.76101443 -36.9419684 32.75653215 -41.25 31.4375 C-42.0646875 31.19773437 -42.879375 30.95796875 -43.71875 30.7109375 C-46.59644451 29.76213243 -49.00316115 28.620866 -51.4375 26.8125 C-52.85651093 22.66462191 -51.05867537 19.26330824 -49.25 15.4375 C-47.43243353 12.28912275 -45.40964155 9.35936797 -43.25 6.4375 C-42.1053125 4.82875 -42.1053125 4.82875 -40.9375 3.1875 C-29.98749209 -8.01715926 -12.81683394 -8.58508991 0 0 Z " fill="#D9E6CF" transform="translate(838.25,781.5625)"/>
<path d="M0 0 C1.175625 0.27972656 2.35125 0.55945313 3.5625 0.84765625 C14.56983008 3.63332278 14.56983008 3.63332278 18 9 C22.80618129 18.34222592 26.28030015 28.37482865 25 39 C23.26401201 41.91180094 22.13544532 42.463017 19 44 C18.34 44 17.68 44 17 44 C17 44.66 17 45.32 17 46 C16.34 46 15.68 46 15 46 C14.505 46.99 14.505 46.99 14 48 C13.59910156 47.49210938 13.19820312 46.98421875 12.78515625 46.4609375 C5.73479664 37.92376736 -1.91751725 32.68128689 -13 31 C-21.83212451 30.32564903 -29.72071903 30.72724893 -38 34 C-36.83940903 31.65358782 -35.64290082 29.35447457 -34.375 27.0625 C-32.11051816 21.61835713 -32.09950271 15.75751026 -33 10 C-34.57895221 6.85175278 -36.50271588 4.46493588 -39 2 C-39.66 1.34 -40.32 0.68 -41 0 C-28.12568801 -3.30716271 -12.83451683 -3.64056006 0 0 Z " fill="#4B594F" transform="translate(515,701)"/>
<path d="M0 0 C0.33 0 0.66 0 1 0 C1.10957031 0.80824219 1.21914063 1.61648438 1.33203125 2.44921875 C1.49058594 3.51785156 1.64914062 4.58648438 1.8125 5.6875 C2.03873047 7.27111328 2.03873047 7.27111328 2.26953125 8.88671875 C3.71841671 15.06191507 6.97625372 18.28242775 12 22 C15.87898232 23.9892217 19.6905784 24.49300922 24 25 C22.65673614 27.89121554 21.10990377 30.26115693 19.125 32.75 C11.21674622 43.12717204 8.55680939 54.03790074 10 67 C11.64308745 75.67807425 15.18849633 83.19942924 20.64453125 90.14453125 C22 92 22 92 22 94 C16.76726498 93.39622288 13.39560301 89.71362759 10.234375 85.83203125 C-4.55951167 65.60299926 -7.73781456 40.44621403 -4.61914062 16.01660156 C-3.63360383 10.59212661 -2.47811098 4.95622197 0 0 Z " fill="#1F2223" transform="translate(442,715)"/>
<path d="M0 0 C0.66 0 1.32 0 2 0 C2.09796875 0.58007812 2.1959375 1.16015625 2.296875 1.7578125 C3.77006498 9.45396018 6.48165915 14.36854729 13 19 C15.56893838 20.28446919 17.76576337 20.32977144 20.625 20.5625 C21.62789062 20.64628906 22.63078125 20.73007812 23.6640625 20.81640625 C24.43492187 20.87699219 25.20578125 20.93757812 26 21 C25.319375 21.639375 24.63875 22.27875 23.9375 22.9375 C14.39667845 32.53253076 7.77447972 43.28317796 7.625 57.125 C7.79799481 68.0777338 10.81065159 76.97353496 16.828125 86.07421875 C18 88 18 88 18 90 C10.51912475 87.66881176 6.05623627 80.74781981 2.4140625 74.109375 C1.18156889 71.43523735 0.07149117 68.74200497 -1 66 C-1.30679688 65.34773437 -1.61359375 64.69546875 -1.9296875 64.0234375 C-4.4871577 58.29957562 -4.72882831 52.3941426 -4.92822266 46.19042969 C-4.97873357 44.64898768 -5.04207834 43.10793928 -5.11474609 41.56738281 C-5.76488423 27.01196951 -3.85585621 14.03285543 0 0 Z " fill="#1F2324" transform="translate(769,718)"/>
<path d="M0 0 C1.79824219 -0.01836914 1.79824219 -0.01836914 3.6328125 -0.03710938 C11.25268392 -0.04950613 18.85116033 0.18981329 26.25 2.1875 C28.25 4.1875 28.25 4.1875 28.5 6.6875 C28.25 9.1875 28.25 9.1875 26.25 11.1875 C24.08679199 11.44146729 24.08679199 11.44146729 21.37304688 11.44628906 C19.85136902 11.45574554 19.85136902 11.45574554 18.2989502 11.46539307 C17.19998413 11.4613446 16.10101807 11.45729614 14.96875 11.453125 C13.84432495 11.45503845 12.7198999 11.4569519 11.56140137 11.45892334 C9.18074317 11.46028617 6.80007757 11.45658294 4.41943359 11.44824219 C0.76513047 11.43754429 -2.88868101 11.44813444 -6.54296875 11.4609375 C-8.85156359 11.45961592 -11.16015812 11.45705357 -13.46875 11.453125 C-15.1171991 11.45919769 -15.1171991 11.45919769 -16.7989502 11.46539307 C-18.32062805 11.45593658 -18.32062805 11.45593658 -19.87304688 11.44628906 C-21.21635071 11.44390228 -21.21635071 11.44390228 -22.58679199 11.44146729 C-24.75 11.1875 -24.75 11.1875 -26.75 9.1875 C-27.1875 6.75 -27.1875 6.75 -26.75 4.1875 C-20.06460294 -1.66222242 -8.28850537 0.00439942 0 0 Z " fill="#232526" transform="translate(656.75,887.8125)"/>
<path d="M0 0 C0.66 0 1.32 0 2 0 C2.03425331 0.92175774 2.03425331 0.92175774 2.06919861 1.86213684 C2.30913752 8.30332806 2.55319503 14.74435419 2.79956055 21.18530273 C2.89076974 23.58370091 2.98095628 25.98213822 3.07006836 28.38061523 C3.19891718 31.84369726 3.33153885 35.30661822 3.46484375 38.76953125 C3.50343002 39.82831985 3.5420163 40.88710846 3.58177185 41.97798157 C3.73326095 53.65704229 3.73326095 53.65704229 6 65 C4.88625 65.680625 4.88625 65.680625 3.75 66.375 C-0.05104686 70.003272 -1.32558901 74.09837229 -3 79 C-3.33 79 -3.66 79 -4 79 C-4.94895713 68.96333143 -5.19971812 59.00835486 -5.1875 48.9375 C-5.18756042 48.17019562 -5.18762085 47.40289124 -5.18768311 46.61233521 C-5.14125925 5.14125925 -5.14125925 5.14125925 0 0 Z " fill="#8EAF83" transform="translate(354,585)"/>
<path d="M0 0 C0.66 0 1.32 0 2 0 C5.97834968 15.64817542 5.12225898 31.78920101 5.0625 47.8125 C5.05747566 50.16210842 5.0529144 52.51171788 5.04882812 54.86132812 C5.03789493 60.57424169 5.02123069 66.28711591 5 72 C3.33333333 70.33333333 1.66666667 68.66666667 0 67 C-0.93086426 66.25766113 -1.86172852 65.51532227 -2.82080078 64.75048828 C-5.96706722 60.77941078 -5.3832608 57.86289047 -4.8671875 52.9921875 C-4.7958963 52.11209015 -4.7246051 51.2319928 -4.65115356 50.32522583 C-4.41748917 47.50567135 -4.14738098 44.69105225 -3.875 41.875 C-3.71362377 40.03537575 -3.55474628 38.1955305 -3.3984375 36.35546875 C-3.16567193 33.61635263 -2.93063478 30.87767282 -2.68328857 28.13983154 C-2.04647255 21.01034087 -1.63017412 13.88278791 -1.34811401 6.73068237 C-1.10350048 1.10350048 -1.10350048 1.10350048 0 0 Z " fill="#8EB084" transform="translate(958,585)"/>
<path d="M0 0 C0.53367187 0.40992188 1.06734375 0.81984375 1.6171875 1.2421875 C7.27230775 5.33187654 12.08399349 7.16257124 19 8 C17.14356139 11.86205533 15.57444674 14.46810023 12 17 C7.46634335 16.89290575 3.26097029 16.26097029 0 13 C-0.1953125 9.9609375 -0.1953125 9.9609375 -0.125 6.375 C-0.10695313 5.18648437 -0.08890625 3.99796875 -0.0703125 2.7734375 C-0.04710937 1.85820313 -0.02390625 0.94296875 0 0 Z " fill="#455148" transform="translate(447,732)"/>
<path d="M0 0 C0.52207031 0.42152344 1.04414062 0.84304688 1.58203125 1.27734375 C7.64843608 5.7926188 12.48430396 6.97190394 20 7 C16.66666667 10.33333333 13.33333333 13.66666667 10 17 C8.53919067 16.38080922 7.08142545 15.75443308 5.625 15.125 C4.81289063 14.77695312 4.00078125 14.42890625 3.1640625 14.0703125 C1 13 1 13 -1 11 C-1.21656848 7.10176743 -1.03218914 3.74891097 0 0 Z " fill="#4A574E" transform="translate(775,732)"/>
<path d="M0 0 C1.66611905 -0.042721 3.33382885 -0.04063832 5 0 C6 1 6 1 6.1875 4.6875 C6.14569794 8.5611577 5.88343902 13.11656098 3 16 C0.5 16.125 0.5 16.125 -2 16 C-3 15 -3 15 -3.25 11.9375 C-2.95768258 7.33350068 -1.7813072 4.23060459 0 0 Z " fill="#272A2C" transform="translate(832,859)"/>
<path d="M0 0 C1.66611905 -0.042721 3.33382885 -0.04063832 5 0 C6.87243981 1.87243981 6.17380392 4.93659518 6.1875 7.4375 C6.20167969 8.61183594 6.21585938 9.78617188 6.23046875 10.99609375 C6 14 6 14 4 16 C1.4375 16.1875 1.4375 16.1875 -1 16 C-2.5516502 14.4483498 -2.1694916 12.96270239 -2.1875 10.8125 C-2.15596429 6.86422854 -1.51112262 3.68336139 0 0 Z " fill="#292C2E" transform="translate(868,859)"/>
<path d="M0 0 C2.5625 0.1875 2.5625 0.1875 4.5625 2.1875 C5.01171875 5.19140625 5.01171875 5.19140625 5.25 8.75 C5.33636719 9.92691406 5.42273438 11.10382812 5.51171875 12.31640625 C5.53685547 13.73759766 5.53685547 13.73759766 5.5625 15.1875 C4.5625 16.1875 4.5625 16.1875 2 16.25 C1.195625 16.229375 0.39125 16.20875 -0.4375 16.1875 C-2.32570833 11.12979911 -3.98645178 6.67701782 -3.4375 1.1875 C-2.4375 0.1875 -2.4375 0.1875 0 0 Z " fill="#26292C" transform="translate(480.4375,858.8125)"/>
<path d="M0 0 C2.5625 0.1875 2.5625 0.1875 4.5625 2.1875 C5.046875 4.9375 5.046875 4.9375 5.3125 8.1875 C5.45945312 9.79625 5.45945312 9.79625 5.609375 11.4375 C5.5625 14.1875 5.5625 14.1875 3.5625 16.1875 C0.9375 15.8125 0.9375 15.8125 -1.4375 15.1875 C-3.40903141 10.25867148 -3.70332874 6.4154653 -3.4375 1.1875 C-2.4375 0.1875 -2.4375 0.1875 0 0 Z " fill="#313436" transform="translate(462.4375,858.8125)"/>
<path d="M0 0 C1.2065625 0.0309375 1.2065625 0.0309375 2.4375 0.0625 C4.01599109 4.89662897 4.84185072 8.90702833 4.4375 14.0625 C3.7775 14.7225 3.1175 15.3825 2.4375 16.0625 C-2.11805556 15.50694444 -2.11805556 15.50694444 -3.5625 14.0625 C-3.6614294 11.89769203 -3.692211 9.72956215 -3.6875 7.5625 C-3.69007813 6.3765625 -3.69265625 5.190625 -3.6953125 3.96875 C-3.51786593 0.08580161 -3.51786593 0.08580161 0 0 Z " fill="#202325" transform="translate(445.5625,858.9375)"/>
<path d="M0 0 C2.5 0.125 2.5 0.125 3.5 1.125 C3.76582874 6.3529653 3.47153141 10.19617148 1.5 15.125 C-0.875 15.75 -0.875 15.75 -3.5 16.125 C-4.16 15.465 -4.82 14.805 -5.5 14.125 C-5.29296875 11.12109375 -5.29296875 11.12109375 -4.6875 7.5625 C-4.49542969 6.38558594 -4.30335938 5.20867188 -4.10546875 3.99609375 C-3.29752492 0.16487625 -3.29752492 0.16487625 0 0 Z " fill="#212325" transform="translate(852.5,858.875)"/>
<path d="M0 0 C0.33 0.99 0.66 1.98 1 3 C1.99 2.67 2.98 2.34 4 2 C4.9375 4.4375 4.9375 4.4375 5 8 C3.03400739 11.32526939 0.58268667 14.13853045 -2 17 C-2.49886719 17.556875 -2.99773438 18.11375 -3.51171875 18.6875 C-4.8125 20.0625 -4.8125 20.0625 -7 22 C-7.66 22 -8.32 22 -9 22 C-7.61701378 18.45929917 -6.10328479 15.00858469 -4.5 11.5625 C-2.75875553 7.76155337 -1.19373656 4.0152957 0 0 Z " fill="#252A29" transform="translate(538,786)"/>
<path d="M0 0 C0.33 0 0.66 0 1 0 C1.23497633 12.0621184 0.94746972 24.02354089 0.125 36.0625 C0.04652832 37.28098633 -0.03194336 38.49947266 -0.11279297 39.75488281 C-0.19674316 40.89924805 -0.28069336 42.04361328 -0.3671875 43.22265625 C-0.44050293 44.24109619 -0.51381836 45.25953613 -0.58935547 46.30883789 C-0.99106774 48.94146239 -1.66242734 50.7175584 -3 53 C-4.125 45.25 -4.125 45.25 -3 43 C-2.84588894 40.9692523 -2.75017547 38.93393579 -2.68359375 36.8984375 C-2.64169922 35.68671875 -2.59980469 34.475 -2.55664062 33.2265625 C-2.51732422 31.95554687 -2.47800781 30.68453125 -2.4375 29.375 C-2.39431641 28.09625 -2.35113281 26.8175 -2.30664062 25.5 C-2.20030114 22.33344652 -2.09827167 19.16681247 -2 16 C-1.34 16 -0.68 16 0 16 C0 10.72 0 5.44 0 0 Z " fill="#323734" transform="translate(165,544)"/>
<path d="M0 0 C0.33 0 0.66 0 1 0 C1.33 17.16 1.66 34.32 2 52 C1.67 52 1.34 52 1 52 C0.67 56.62 0.34 61.24 0 66 C-0.33 66 -0.66 66 -1 66 C-1.06993539 51.05422434 -0.86207631 36.12861543 -0.5 21.1875 C-0.45160016 19.11523957 -0.40342212 17.04297394 -0.35546875 14.97070312 C-0.23952135 9.98040552 -0.12062425 4.99018665 0 0 Z " fill="#AEB9A8" transform="translate(691,463)"/>
<path d="M0 0 C18.15 0 36.3 0 55 0 C54.67 0.99 54.34 1.98 54 3 C50.04 3 46.08 3 42 3 C42 2.34 42 1.68 42 1 C28.14 1 14.28 1 0 1 C0 0.67 0 0.34 0 0 Z " fill="#454749" transform="translate(634,686)"/>
<path d="M0 0 C0.66 0 1.32 0 2 0 C2.05398987 2.27057377 2.09278742 4.54151288 2.125 6.8125 C2.14820313 8.07707031 2.17140625 9.34164062 2.1953125 10.64453125 C2 14 2 14 0 17 C-0.99 17 -1.98 17 -3 17 C-2.54775239 11.08507728 -1.8417395 5.64800112 0 0 Z " fill="#94B48A" transform="translate(354,585)"/>
<path d="M0 0 C0.33 0 0.66 0 1 0 C1.33 2.64 1.66 5.28 2 8 C2.33 8 2.66 8 3 8 C2.67 19.22 2.34 30.44 2 42 C1.67 42 1.34 42 1 42 C0.505 21.21 0.505 21.21 0 0 Z " fill="#AEBAA8" transform="translate(264,737)"/>
<path d="M0 0 C0.99 0.33 1.98 0.66 3 1 C3.4375 3.125 3.4375 3.125 3 6 C0.93639829 8.36870412 -1.33307541 10.33816904 -4 12 C-4.99 12 -5.98 12 -7 12 C-5.61735163 9.13132769 -4.07851447 6.43975968 -2.375 3.75 C-1.92898438 3.04359375 -1.48296875 2.3371875 -1.0234375 1.609375 C-0.68570313 1.07828125 -0.34796875 0.5471875 0 0 Z " fill="#262B29" transform="translate(858,797)"/>
<path d="M0 0 C0.66 0.99 1.32 1.98 2 3 C2.56976563 3.79535156 3.13953125 4.59070313 3.7265625 5.41015625 C4.35304688 6.28542969 4.97953125 7.16070313 5.625 8.0625 C6.25664062 8.94035156 6.88828125 9.81820312 7.5390625 10.72265625 C9 13 9 13 9 15 C4.62140745 14.49477778 2.18348776 11.82172778 -1 9 C-0.67 8.01 -0.34 7.02 0 6 C0.33 6 0.66 6 1 6 C0.67 4.02 0.34 2.04 0 0 Z " fill="#292D2C" transform="translate(455,794)"/>
<path d="M0 0 C0.99 0.33 1.98 0.66 3 1 C-1 5.66666667 -5 10.33333333 -9 15 C-9.66 14.01 -10.32 13.02 -11 12 C-7.37 8.04 -3.74 4.08 0 0 Z " fill="#323A37" transform="translate(401,701)"/>
<path d="M0 0 C1.299375 0.00451172 2.59875 0.00902344 3.9375 0.01367188 C7.12504825 0.0253908 10.31249955 0.04179781 13.5 0.0625 C13.5 0.3925 13.5 0.7225 13.5 1.0625 C12.78344238 1.08755615 12.06688477 1.1126123 11.32861328 1.13842773 C8.09388486 1.25419751 4.85946159 1.37700969 1.625 1.5 C0.49707031 1.53931641 -0.63085938 1.57863281 -1.79296875 1.61914062 C-2.86933594 1.66103516 -3.94570313 1.70292969 -5.0546875 1.74609375 C-6.54718018 1.80108032 -6.54718018 1.80108032 -8.06982422 1.85717773 C-10.50779501 1.91209532 -10.50779501 1.91209532 -12.5 3.0625 C-14.7072923 3.13342842 -16.91667452 3.14665025 -19.125 3.125 C-20.31351563 3.11597656 -21.50203125 3.10695313 -22.7265625 3.09765625 C-23.64179687 3.08605469 -24.55703125 3.07445312 -25.5 3.0625 C-18.44047261 -1.64385159 -8.15871765 -0.05389397 0 0 Z " fill="#5B5D5E" transform="translate(657.5,887.9375)"/>
<path d="M0 0 C0.33 0.99 0.66 1.98 1 3 C-3.29 7.29 -7.58 11.58 -12 16 C-12.99 15.67 -13.98 15.34 -15 15 C-10.05 10.05 -5.1 5.1 0 0 Z " fill="#D5E0CB" transform="translate(369,272)"/>
<path d="M0 0 C0.66 0 1.32 0 2 0 C3.5078125 2.1171875 3.5078125 2.1171875 5.125 4.875 C5.66382813 5.77992188 6.20265625 6.68484375 6.7578125 7.6171875 C8 10 8 10 8 12 C1.86319613 9.84382567 1.86319613 9.84382567 0 7 C-0.1875 3.3125 -0.1875 3.3125 0 0 Z " fill="#2B302E" transform="translate(779,796)"/>
<path d="M0 0 C0.66 0 1.32 0 2 0 C2.66 3.63 3.32 7.26 4 11 C3.01 11.33 2.02 11.66 1 12 C0.34 12.99 -0.32 13.98 -1 15 C-2.18609365 9.3067505 -1.66251802 5.57432514 0 0 Z " fill="#3C3F41" transform="translate(769,718)"/>
<path d="M0 0 C0.33 0 0.66 0 1 0 C0.89008359 4.08388613 0.75946145 8.16685411 0.625 12.25 C0.5940625 13.40886719 0.563125 14.56773437 0.53125 15.76171875 C0.49257812 16.87675781 0.45390625 17.99179687 0.4140625 19.140625 C0.3826416 20.16704102 0.3512207 21.19345703 0.31884766 22.25097656 C0.00363375 24.96867073 -0.61032351 26.66924435 -2 29 C-3.125 21.25 -3.125 21.25 -2 19 C-1.95509079 17.31309769 -1.96116137 15.624553 -2 13.9375 C-2.03777102 12.29210014 -2.04642479 10.64517844 -2 9 C-1.67 8.67 -1.34 8.34 -1 8 C-0.76924918 6.65252916 -0.58846937 5.29622435 -0.4375 3.9375 C-0.2209375 1.9884375 -0.2209375 1.9884375 0 0 Z " fill="#333935" transform="translate(164,568)"/>
<path d="M0 0 C0.33 0 0.66 0 1 0 C1.33 7.26 1.66 14.52 2 22 C1.34 22 0.68 22 0 22 C0 26.29 0 30.58 0 35 C-0.33 35 -0.66 35 -1 35 C-1.14534014 23.29204426 -0.71125207 11.68485544 0 0 Z " fill="#454748" transform="translate(678,529)"/>
<path d="M0 0 C1.37344385 4.39844322 0.24307502 7.92504555 -0.9375 12.25 C-1.23043945 13.36761719 -1.23043945 13.36761719 -1.52929688 14.5078125 C-2.01104198 16.34079386 -2.50439225 18.17071818 -3 20 C-3.66 20 -4.32 20 -5 20 C-4.54775239 14.08507728 -3.8417395 8.64800112 -2 3 C-1.34 3 -0.68 3 0 3 C0 2.01 0 1.02 0 0 Z " fill="#CCD8C4" transform="translate(270,438)"/>
<path d="M0 0 C0 0.66 0 1.32 0 2 C3.3 2 6.6 2 10 2 C10 2.33 10 2.66 10 3 C0.93664124 3.10234659 -7.98175113 3.06996173 -17 2 C-17 1.67 -17 1.34 -17 1 C-14.9168207 0.83141902 -12.83344956 0.66520745 -10.75 0.5 C-9.58984375 0.4071875 -8.4296875 0.314375 -7.234375 0.21875 C-4.82731342 0.05595356 -2.41256049 0 0 0 Z " fill="#595A5B" transform="translate(613,1001)"/>
<path d="M0 0 C0.66 0.33 1.32 0.66 2 1 C-2.85526316 7.20394737 -2.85526316 7.20394737 -7 9 C-7.7425 9.8353125 -7.7425 9.8353125 -8.5 10.6875 C-8.995 11.120625 -9.49 11.55375 -10 12 C-12.09375 11.58203125 -12.09375 11.58203125 -14 11 C-13.15695312 10.37351562 -12.31390625 9.74703125 -11.4453125 9.1015625 C-10.33847821 8.27612676 -9.23171086 7.45060124 -8.125 6.625 C-7.56941406 6.2125 -7.01382813 5.8 -6.44140625 5.375 C-4.1649876 3.6745427 -2.0120881 2.0120881 0 0 Z " fill="#27292B" transform="translate(895,919)"/>
<path d="M0 0 C-0.33 0.99 -0.66 1.98 -1 3 C-3.50390625 3.94921875 -3.50390625 3.94921875 -6.5625 4.6875 C-7.57441406 4.93886719 -8.58632813 5.19023438 -9.62890625 5.44921875 C-10.41136719 5.63097656 -11.19382812 5.81273437 -12 6 C-12 5.34 -12 4.68 -12 4 C-12.66 3.67 -13.32 3.34 -14 3 C-12.23050388 2.49528803 -10.45934777 1.99639315 -8.6875 1.5 C-7.70136719 1.2215625 -6.71523438 0.943125 -5.69921875 0.65625 C-3 0 -3 0 0 0 Z " fill="#272A2B" transform="translate(797,971)"/>
<path d="M0 0 C0.33 1.32 0.66 2.64 1 4 C0.34 4 -0.32 4 -1 4 C-1.0825 4.680625 -1.165 5.36125 -1.25 6.0625 C-2.22332528 9.8746907 -3.95807455 12.64070329 -6 16 C-6.66 16 -7.32 16 -8 16 C-6.42986223 10.03347646 -3.24970218 5.17090975 0 0 Z " fill="#C7D1C0" transform="translate(307,348)"/>
<path d="M0 0 C0.33 0 0.66 0 1 0 C1.33 6.6 1.66 13.2 2 20 C1.34 20 0.68 20 0 20 C-0.33 21.32 -0.66 22.64 -1 24 C-0.67 16.08 -0.34 8.16 0 0 Z " fill="#949D90" transform="translate(948,799)"/>
<path d="M0 0 C0.66 0.33 1.32 0.66 2 1 C1.38125 1.2475 0.7625 1.495 0.125 1.75 C-2.11049208 2.80004165 -2.11049208 2.80004165 -2.875 4.8125 C-4.55805758 8.08511196 -7.11451985 9.74179814 -10 12 C-10 9 -10 9 -8.57421875 7.24609375 C-7.95160156 6.64925781 -7.32898438 6.05242188 -6.6875 5.4375 C-6.07261719 4.83808594 -5.45773437 4.23867188 -4.82421875 3.62109375 C-3 2 -3 2 0 0 Z " fill="#E4E3E4" transform="translate(422,715)"/>
<path d="M0 0 C0.66 0.99 1.32 1.98 2 3 C1.20890398 4.27118864 0.41709922 5.54193623 -0.375 6.8125 C-0.81585938 7.52019531 -1.25671875 8.22789062 -1.7109375 8.95703125 C-2.78188476 10.65432039 -3.88676239 12.33014358 -5 14 C-5.66 14 -6.32 14 -7 14 C-5.23570801 9.02790438 -2.6060834 4.56561939 0 0 Z " fill="#2D3332" transform="translate(293,346)"/>
<path d="M0 0 C0.144375 0.598125 0.28875 1.19625 0.4375 1.8125 C0.8872439 3.56150404 1.42892341 5.28677023 2 7 C2.99 7.33 3.98 7.66 5 8 C0.05 9.485 0.05 9.485 -5 11 C-4.34 9.68 -3.68 8.36 -3 7 C-2.44812106 5.75447505 -1.90581249 4.50464771 -1.375 3.25 C-0.92125 2.1775 -0.4675 1.105 0 0 Z " fill="#6C7C6D" transform="translate(482,724)"/>
<path d="M0 0 C2 3 2 3 1.7578125 5.48046875 C1.54898438 6.37378906 1.34015625 7.26710938 1.125 8.1875 C0.92132812 9.08855469 0.71765625 9.98960937 0.5078125 10.91796875 C0.25644531 11.94857422 0.25644531 11.94857422 0 13 C-0.99 13 -1.98 13 -3 13 C-3.27429625 7.60550707 -3.36055646 4.48074195 0 0 Z " fill="#C0CCB8" transform="translate(967,715)"/>
<path d="M0 0 C5.64788053 -0.3457886 9.07569129 0.43935947 14 3 C14.33 3.66 14.66 4.32 15 5 C13.06077578 4.54901762 11.12366406 4.08894441 9.1875 3.625 C8.10855469 3.36976563 7.02960938 3.11453125 5.91796875 2.8515625 C3 2 3 2 0 0 Z " fill="#424445" transform="translate(503,983)"/>
<path d="M0 0 C0.33 0 0.66 0 1 0 C2.24327778 5.84340558 1.57300962 10.26696495 0 16 C-0.66 16 -1.32 16 -2 16 C-1.85764543 14.27054347 -1.71095618 12.54144346 -1.5625 10.8125 C-1.48128906 9.84957031 -1.40007813 8.88664063 -1.31640625 7.89453125 C-1.02333849 5.21350398 -0.57296246 2.6337014 0 0 Z " fill="#BDC6B7" transform="translate(931,944)"/>
<path d="M0 0 C1.11739094 3.35217281 0.99087769 5.61450123 0 9 C-1.4375 11.8125 -1.4375 11.8125 -3 14 C-3.66 14 -4.32 14 -5 14 C-3.45730076 9.27934033 -1.92205381 4.58335908 0 0 Z " fill="#2A302F" transform="translate(1009,938)"/>
<path d="M0 0 C0.33 0 0.66 0 1 0 C1.33 3.96 1.66 7.92 2 12 C1.01 12.33 0.02 12.66 -1 13 C-1.33 13.99 -1.66 14.98 -2 16 C-1.34 10.72 -0.68 5.44 0 0 Z " fill="#4D4F50" transform="translate(920,930)"/>
<path d="M0 0 C0.33 0 0.66 0 1 0 C0.67 6.6 0.34 13.2 0 20 C-0.33 20 -0.66 20 -1 20 C-1.22295635 17.60472566 -1.42874063 15.20998659 -1.625 12.8125 C-1.68945312 12.13896484 -1.75390625 11.46542969 -1.8203125 10.77148438 C-2.14362111 6.62909282 -1.89095265 3.71694891 0 0 Z " fill="#545A53" transform="translate(946,830)"/>
<path d="M0 0 C0.33 0 0.66 0 1 0 C2.33257403 11.52164009 2.33257403 11.52164009 1 17 C-1 15 -1 15 -1.1875 11.3125 C-1.09629967 7.47507066 -0.63059333 3.78355996 0 0 Z " fill="#46494A" transform="translate(937,736)"/>
<path d="M0 0 C0.66 0.33 1.32 0.66 2 1 C1.49396008 3.16874252 1.00016187 4.99967627 0 7 C0.66 7.33 1.32 7.66 2 8 C0.68 8.33 -0.64 8.66 -2 9 C-2.6875 6.1875 -2.6875 6.1875 -3 3 C-1.5625 1.125 -1.5625 1.125 0 0 Z " fill="#343739" transform="translate(384,718)"/>
<path d="M0 0 C1.98 0.495 1.98 0.495 4 1 C4 6.28 4 11.56 4 17 C3.67 17 3.34 17 3 17 C3 12.38 3 7.76 3 3 C2.34 3 1.68 3 1 3 C0.34 3.66 -0.32 4.32 -1 5 C-0.67 3.35 -0.34 1.7 0 0 Z " fill="#262B2B" transform="translate(259,620)"/>
<path d="M0 0 C0.66 0.33 1.32 0.66 2 1 C-0.17424117 3.50037734 -1.73045798 4.43628586 -5 5 C-5 5.66 -5 6.32 -5 7 C-5.99 7.33 -6.98 7.66 -8 8 C-8.99 7.34 -9.98 6.68 -11 6 C-9.21385682 4.96953278 -7.42089982 3.95086764 -5.625 2.9375 C-4.62726562 2.36902344 -3.62953125 1.80054688 -2.6015625 1.21484375 C-1.74304688 0.81394531 -0.88453125 0.41304687 0 0 Z " fill="#303334" transform="translate(856,945)"/>
<path d="M0 0 C0.99 0.33 1.98 0.66 3 1 C2.57742724 2.4835001 2.13643678 3.96176424 1.6875 5.4375 C1.44386719 6.26121094 1.20023438 7.08492187 0.94921875 7.93359375 C0.63597656 8.61550781 0.32273437 9.29742188 0 10 C-0.99 10.33 -1.98 10.66 -3 11 C-2.01 7.37 -1.02 3.74 0 0 Z " fill="#383B3C" transform="translate(587,778)"/>
<path d="M0 0 C0.99 0 1.98 0 3 0 C3.33 1.98 3.66 3.96 4 6 C2.35 5.67 0.7 5.34 -1 5 C-0.67 3.35 -0.34 1.7 0 0 Z " fill="#37393B" transform="translate(414,768)"/>
<path d="M0 0 C3.21746321 2.65790439 3.08233008 3.41165038 4 8 C0.37 7.01 -3.26 6.02 -7 5 C-5.68 4.67 -4.36 4.34 -3 4 C-2.01 3.67 -1.02 3.34 0 3 C0 2.01 0 1.02 0 0 Z " fill="#D1D1D1" transform="translate(885,584)"/>
<path d="M0 0 C0.33 0.66 0.66 1.32 1 2 C1.66 2 2.32 2 3 2 C2.67 4.31 2.34 6.62 2 9 C2.66 9 3.32 9 4 9 C3.67 11.64 3.34 14.28 3 17 C2.67 17 2.34 17 2 17 C1.34 11.39 0.68 5.78 0 0 Z " fill="#B0BAAA" transform="translate(488,465)"/>
<path d="M0 0 C-0.33 0.99 -0.66 1.98 -1 3 C-5.01804691 3.84098656 -8.01803543 4.05404945 -12 3 C-8.04953338 0.80529632 -4.51236303 0 0 0 Z " fill="#2E3133" transform="translate(779,976)"/>
<path d="M0 0 C6.43311296 -0.09507063 12.65758005 -0.15316726 19 1 C19 1.33 19 1.66 19 2 C15.7 2.33 12.4 2.66 9 3 C9 2.67 9 2.34 9 2 C6.03 1.67 3.06 1.34 0 1 C0 0.67 0 0.34 0 0 Z " fill="#B6C1B1" transform="translate(323,710)"/>
<path d="M0 0 C0 0.33 0 0.66 0 1 C-1.175625 1.2165625 -1.175625 1.2165625 -2.375 1.4375 C-4.96421018 1.87798925 -4.96421018 1.87798925 -7 3 C-9.125 2.5625 -9.125 2.5625 -11 2 C-11 2.66 -11 3.32 -11 4 C-13.97 3.505 -13.97 3.505 -17 3 C-11.41161911 -0.10465605 -6.24532781 -0.10585301 0 0 Z " fill="#525455" transform="translate(811,676)"/>
<path d="M0 0 C0.33 0 0.66 0 1 0 C1.24942657 2.24784424 1.47383488 4.49847506 1.6875 6.75 C1.87892578 8.62945313 1.87892578 8.62945313 2.07421875 10.546875 C2 14 2 14 -1 18 C-0.505 9.09 -0.505 9.09 0 0 Z " fill="#AAB3A4" transform="translate(248,554)"/>
<path d="M0 0 C0.66 0 1.32 0 2 0 C2.33 3.63 2.66 7.26 3 11 C2.34 11 1.68 11 1 11 C1 12.98 1 14.96 1 17 C0.67 17 0.34 17 0 17 C0 11.39 0 5.78 0 0 Z " fill="#57595A" transform="translate(934,822)"/>
<path d="M0 0 C0.66 0.99 1.32 1.98 2 3 C0.35 4.98 -1.3 6.96 -3 9 C-4.32 8.67 -5.64 8.34 -7 8 C-4.69 5.36 -2.38 2.72 0 0 Z " fill="#333537" transform="translate(921,800)"/>
<path d="M0 0 C0.99 0.33 1.98 0.66 3 1 C0.69 3.31 -1.62 5.62 -4 8 C-4.99 7.67 -5.98 7.34 -7 7 C-4.69 4.69 -2.38 2.38 0 0 Z " fill="#D6E1CD" transform="translate(232,336)"/>
<path d="M0 0 C0.99 0.33 1.98 0.66 3 1 C0.66666667 3.33333333 -1.66666667 5.66666667 -4 8 C-4.99 7.67 -5.98 7.34 -7 7 C-4.69 4.69 -2.38 2.38 0 0 Z " fill="#2B2E30" transform="translate(222,325)"/>
<path d="M0 0 C3.36591866 1.44253657 5.51047079 3.33264727 8 6 C7.67 6.99 7.34 7.98 7 9 C4.03595495 6.19195732 1.55500981 3.81684226 0 0 Z " fill="#323335" transform="translate(935,281)"/>
<path d="M0 0 C0 2.31 0 4.62 0 7 C-0.33 6.34 -0.66 5.68 -1 5 C-1.66 5 -2.32 5 -3 5 C-3.33 5.99 -3.66 6.98 -4 8 C-4.66 7.01 -5.32 6.02 -6 5 C-1.125 0 -1.125 0 0 0 Z " fill="#EFEFEF" transform="translate(923,914)"/>
<path d="M0 0 C1.17539996 0.92652701 2.34010577 1.86663387 3.5 2.8125 C4.1496875 3.33457031 4.799375 3.85664062 5.46875 4.39453125 C7 6 7 6 7 9 C5.82460004 8.07347299 4.65989423 7.13336613 3.5 6.1875 C2.52546875 5.40439453 2.52546875 5.40439453 1.53125 4.60546875 C0 3 0 3 0 0 Z " fill="#2A2B2D" transform="translate(218,768)"/>
<path d="M0 0 C3.7952131 1.49097658 5.61042731 3.75700849 8 7 C6.68 7 5.36 7 4 7 C0 2.77777778 0 2.77777778 0 0 Z " fill="#323335" transform="translate(926,272)"/>
<path d="M0 0 C0.66 0.33 1.32 0.66 2 1 C0.02 3.31 -1.96 5.62 -4 8 C-5.32 7.67 -6.64 7.34 -8 7 C-5.36 4.69 -2.72 2.38 0 0 Z " fill="#D2DCC9" transform="translate(378,264)"/>
<path d="M0 0 C-3.28491373 2.18994248 -4.83095639 2.35277339 -8.6875 2.625 C-10.17830078 2.73714844 -10.17830078 2.73714844 -11.69921875 2.8515625 C-12.83810547 2.92503906 -12.83810547 2.92503906 -14 3 C-9.25115925 -0.73481767 -5.9188012 -1.52197745 0 0 Z " fill="#434445" transform="translate(745,997)"/>
<path d="M0 0 C0.99 0.33 1.98 0.66 3 1 C-0.625 5.875 -0.625 5.875 -4 7 C-4 6.01 -4 5.02 -4 4 C-2.68 3.34 -1.36 2.68 0 2 C0 1.34 0 0.68 0 0 Z " fill="#EDEDED" transform="translate(898,913)"/>
<path d="M0 0 C0.66 0 1.32 0 2 0 C2.625 2.875 2.625 2.875 3 6 C2.34 6.66 1.68 7.32 1 8 C0.01 8 -0.98 8 -2 8 C-2 7.34 -2 6.68 -2 6 C-1.34 6 -0.68 6 0 6 C0 4.02 0 2.04 0 0 Z " fill="#242729" transform="translate(465,867)"/>
<path d="M0 0 C0.33 0 0.66 0 1 0 C1.125 2.375 1.125 2.375 1 5 C0.34 5.66 -0.32 6.32 -1 7 C-1.40047444 9.32275177 -1.7397104 11.65739357 -2 14 C-2.33 14 -2.66 14 -3 14 C-3.14285714 5.42857143 -3.14285714 5.42857143 -2 2 C-1.34 2 -0.68 2 0 2 C0 1.34 0 0.68 0 0 Z " fill="#C2CDBC" transform="translate(947,848)"/>
<path d="M0 0 C0.433125 0.598125 0.86625 1.19625 1.3125 1.8125 C2.77461239 3.70783087 4.27050227 5.3528593 6 7 C4.35 7.66 2.7 8.32 1 9 C-0.4783226 6.04335481 -0.06032783 3.25770263 0 0 Z " fill="#CCDDC3" transform="translate(358,640)"/>
<path d="M0 0 C0.66 0 1.32 0 2 0 C2 1.98 2 3.96 2 6 C0 7 -2 8 -4 9 C-2.80100302 5.9168649 -1.52299523 2.93720508 0 0 Z " fill="#D2D3D4" transform="translate(476,467)"/>
<path d="M0 0 C2 3 2 3 1.8125 6.5625 C1 10 1 10 -2 12 C-1.85831863 10.56208484 -1.71148957 9.1246763 -1.5625 7.6875 C-1.48128906 6.88699219 -1.40007812 6.08648437 -1.31640625 5.26171875 C-1 3 -1 3 0 0 Z " fill="#404244" transform="translate(248,465)"/>
<path d="M0 0 C0.66 0.33 1.32 0.66 2 1 C-0.31 3.64 -2.62 6.28 -5 9 C-5.33 8.01 -5.66 7.02 -6 6 C-4.02 4.02 -2.04 2.04 0 0 Z " fill="#282A2C" transform="translate(364,257)"/>
<path d="M0 0 C3.7952131 1.49097658 5.61042731 3.75700849 8 7 C5 7 5 7 2.3125 4.625 C0 2 0 2 0 0 Z " fill="#343936" transform="translate(335,996)"/>
<path d="M0 0 C-0.33 0.99 -0.66 1.98 -1 3 C-3.97 3 -6.94 3 -10 3 C-10 2.34 -10 1.68 -10 1 C-3.375 0 -3.375 0 0 0 Z " fill="#252829" transform="translate(758,981)"/>
<path d="M0 0 C1.98 1.65 3.96 3.3 6 5 C5.01 5.99 4.02 6.98 3 8 C0.4345406 5.4345406 0.45953913 3.52313332 0 0 Z " fill="#EAEAEB" transform="translate(390,919)"/>
<path d="M0 0 C-0.33 1.32 -0.66 2.64 -1 4 C-1 3.01 -1 2.02 -1 1 C-1.99 1.495 -1.99 1.495 -3 2 C-4.99960012 2.039992 -7.00047242 2.04346799 -9 2 C-9 1.34 -9 0.68 -9 0 C-5.62182575 -0.84454356 -3.32534757 -1.10844919 0 0 Z " fill="#313234" transform="translate(761,709)"/>
<path d="M0 0 C0.66 0.99 1.32 1.98 2 3 C1.125 6.1875 1.125 6.1875 0 9 C-0.99 9 -1.98 9 -3 9 C-2.01 6.03 -1.02 3.06 0 0 Z " fill="#303534" transform="translate(566,605)"/>
<path d="M0 0 C0.66 0.33 1.32 0.66 2 1 C0.52307692 5.67692308 0.52307692 5.67692308 -2.125 7.3125 C-3.053125 7.6528125 -3.053125 7.6528125 -4 8 C-2.87548273 5.0280615 -1.77706209 2.66559313 0 0 Z " fill="#272D2D" transform="translate(302,331)"/>
<path d="M0 0 C0.66 0.66 1.32 1.32 2 2 C0.35 3.98 -1.3 5.96 -3 8 C-3.66 7.01 -4.32 6.02 -5 5 C-3.35 3.35 -1.7 1.7 0 0 Z " fill="#292C2D" transform="translate(341,280)"/>
<path d="M0 0 C0.99 0 1.98 0 3 0 C3.66 1.98 4.32 3.96 5 6 C3.02 5.34 1.04 4.68 -1 4 C-0.67 2.68 -0.34 1.36 0 0 Z " fill="#BEC7B5" transform="translate(200,833)"/>
<path d="M0 0 C0.33 0 0.66 0 1 0 C1 1.65 1 3.3 1 5 C0.01 5.33 -0.98 5.66 -2 6 C-2 8.31 -2 10.62 -2 13 C-2.33 13 -2.66 13 -3 13 C-3.27131956 7.66404866 -3.4266889 4.38616179 0 0 Z " fill="#474A4B" transform="translate(767,735)"/>
<path d="M0 0 C0.33 0 0.66 0 1 0 C1 2.97 1 5.94 1 9 C0.01 9.33 -0.98 9.66 -2 10 C-1.125 2.25 -1.125 2.25 0 0 Z " fill="#505052" transform="translate(442,715)"/>
<path d="M0 0 C2.31 0.66 4.62 1.32 7 2 C7 2.99 7 3.98 7 5 C6.67 4.34 6.34 3.68 6 3 C5.01 3.99 4.02 4.98 3 6 C0 2.25 0 2.25 0 0 Z " fill="#CCCCCD" transform="translate(542,709)"/>
<path d="M0 0 C0.66 0 1.32 0 2 0 C2.66 1.65 3.32 3.3 4 5 C2.68 5 1.36 5 0 5 C-0.33 5.66 -0.66 6.32 -1 7 C-1.66 6.67 -2.32 6.34 -3 6 C-2.01 4.02 -1.02 2.04 0 0 Z " fill="#E2E3E3" transform="translate(571,619)"/>
<path d="M0 0 C0.33 0 0.66 0 1 0 C1.28571429 8.57142857 1.28571429 8.57142857 -1 12 C-2.42857143 3.42857143 -2.42857143 3.42857143 0 0 Z " fill="#4C524C" transform="translate(163,585)"/>
<path d="M0 0 C4.55015893 1.51671964 6.50057264 5.16891053 9 9 C5.18063472 7.44396229 2.73955562 5.04395069 0 2 C0 1.34 0 0.68 0 0 Z " fill="#D3DECB" transform="translate(932,300)"/>
<path d="M0 0 C0.33 0.66 0.66 1.32 1 2 C-0.65 3.98 -2.3 5.96 -4 8 C-4.99 7.67 -5.98 7.34 -7 7 C-4.69 4.69 -2.38 2.38 0 0 Z " fill="#CED8C6" transform="translate(353,288)"/>
<path d="M0 0 C0 0.66 0 1.32 0 2 C1.65 2 3.3 2 5 2 C5 2.33 5 2.66 5 3 C0.48382401 3.07654536 -3.59085217 3.10228696 -8 2 C-8 1.67 -8 1.34 -8 1 C-5.23735711 0.40267181 -2.83967231 0 0 0 Z " fill="#4A4B4D" transform="translate(590,999)"/>
<path d="M0 0 C0.66 0.99 1.32 1.98 2 3 C-0.31 4.98 -2.62 6.96 -5 9 C-5.66 8.67 -6.32 8.34 -7 8 C-4.69 5.36 -2.38 2.72 0 0 Z " fill="#DCDBDD" transform="translate(539,798)"/>
<path d="M0 0 C0.33 0 0.66 0 1 0 C1 1.98 1 3.96 1 6 C-1.86177057 7.43088528 -3.93375773 6.59991697 -7 6 C-7 5.67 -7 5.34 -7 5 C-5.02 5 -3.04 5 -1 5 C-0.67 3.35 -0.34 1.7 0 0 Z " fill="#27292A" transform="translate(932,720)"/>
<path d="M0 0 C0 0.33 0 0.66 0 1 C-0.69867188 1.13277344 -1.39734375 1.26554688 -2.1171875 1.40234375 C-3.02726562 1.57894531 -3.93734375 1.75554688 -4.875 1.9375 C-5.77992188 2.11152344 -6.68484375 2.28554688 -7.6171875 2.46484375 C-9.99956317 2.89963701 -9.99956317 2.89963701 -12 4 C-12.66 3.34 -13.32 2.68 -14 2 C-9.35150485 -0.3992233 -5.08913926 -0.19957409 0 0 Z " fill="#A9AAAC" transform="translate(467,698)"/>
<path d="M0 0 C0.33 0.66 0.66 1.32 1 2 C-0.33332095 5.99996286 -2.4957827 6.83782337 -6 9 C-4.47291037 5.56404834 -2.40072955 2.88087546 0 0 Z " fill="#DADADB" transform="translate(252,446)"/>
<path d="M0 0 C1.32 0 2.64 0 4 0 C4 0.66 4 1.32 4 2 C2.5459375 2.4021875 2.5459375 2.4021875 1.0625 2.8125 C0.051875 3.204375 -0.95875 3.59625 -2 4 C-2.33 4.99 -2.66 5.98 -3 7 C-2.25 2.25 -2.25 2.25 0 0 Z " fill="#373E3A" transform="translate(818,444)"/>
<path d="M0 0 C0.33 0 0.66 0 1 0 C0.125 6.75 0.125 6.75 -1 9 C-1.66 9 -2.32 9 -3 9 C-2.01 6.03 -1.02 3.06 0 0 Z " fill="#343638" transform="translate(889,1041)"/>
<path d="M0 0 C1.89213369 2.38573379 3.02391783 4.07175348 4 7 C2.35 6.67 0.7 6.34 -1 6 C-0.67 4.02 -0.34 2.04 0 0 Z " fill="#BBC6B3" transform="translate(415,1044)"/>
<path d="M0 0 C0.66 0 1.32 0 2 0 C2.24954005 1.43410368 2.47392642 2.87260072 2.6875 4.3125 C2.87892578 5.51326172 2.87892578 5.51326172 3.07421875 6.73828125 C3 9 3 9 0 12 C0 8.04 0 4.08 0 0 Z " fill="#5C5E5F" transform="translate(922,913)"/>
<path d="M0 0 C0.66 0.99 1.32 1.98 2 3 C0.68 4.32 -0.64 5.64 -2 7 C-2.99 6.67 -3.98 6.34 -5 6 C-3.35 4.02 -1.7 2.04 0 0 Z " fill="#303234" transform="translate(920,894)"/>
<path d="M0 0 C2 4 2 4 1.3125 6.1875 C0 8 0 8 -3 9 C-2.01 6.03 -1.02 3.06 0 0 Z " fill="#434647" transform="translate(927,787)"/>
<path d="M0 0 C4.455 0.99 4.455 0.99 9 2 C9 2.66 9 3.32 9 4 C6.75 4.25 6.75 4.25 4 4 C1.6875 2 1.6875 2 0 0 Z " fill="#333536" transform="translate(547,710)"/>
<path d="M0 0 C0.66 0.33 1.32 0.66 2 1 C2 1.66 2 2.32 2 3 C0.1875 4.6875 0.1875 4.6875 -2 6 C-2.99 5.67 -3.98 5.34 -5 5 C-3.35 3.35 -1.7 1.7 0 0 Z " fill="#E1E1E2" transform="translate(728,673)"/>
<path d="M0 0 C0.66 0 1.32 0 2 0 C2.75 1.6875 2.75 1.6875 3 4 C1.0625 6.75 1.0625 6.75 -1 9 C-0.67 6.03 -0.34 3.06 0 0 Z " fill="#303234" transform="translate(165,429)"/>
</g>
</svg>
